<?xml version="1.0" encoding="UTF-8" standalone="no"?>
<svg
   xmlns:dc="http://purl.org/dc/elements/1.1/"
   xmlns:cc="http://creativecommons.org/ns#"
   xmlns:rdf="http://www.w3.org/1999/02/22-rdf-syntax-ns#"
   xmlns:svg="http://www.w3.org/2000/svg"
   xmlns="http://www.w3.org/2000/svg"
   xmlns:sodipodi="http://sodipodi.sourceforge.net/DTD/sodipodi-0.dtd"
   xmlns:inkscape="http://www.inkscape.org/namespaces/inkscape"
   sodipodi:docname="octopus_angry.svg"
   inkscape:version="1.0 (4035a4fb49, 2020-05-01)"
   id="svg8"
   version="1.1"
   viewBox="0 0 264.58333 264.58334"
   height="1000"
   width="1000">
  <defs
     id="defs2" />
  <sodipodi:namedview
     units="px"
     inkscape:window-maximized="1"
     inkscape:window-y="-11"
     inkscape:window-x="-11"
     inkscape:window-height="986"
     inkscape:window-width="1920"
     showgrid="true"
     inkscape:document-rotation="0"
     inkscape:current-layer="layer1"
     inkscape:document-units="mm"
     inkscape:cy="466.85841"
     inkscape:cx="539.64799"
     inkscape:zoom="1"
     inkscape:pageshadow="2"
     inkscape:pageopacity="0.0"
     borderopacity="1.0"
     bordercolor="#666666"
     pagecolor="#ffffff"
     id="base">
    <inkscape:grid
       id="grid833"
       type="xygrid" />
  </sodipodi:namedview>
  <metadata
     id="metadata5">
    <rdf:RDF>
      <cc:Work
         rdf:about="">
        <dc:format>image/svg+xml</dc:format>
        <dc:type
           rdf:resource="http://purl.org/dc/dcmitype/StillImage" />
        <dc:title></dc:title>
      </cc:Work>
    </rdf:RDF>
  </metadata>
  <g
     id="layer1"
     inkscape:groupmode="layer"
     inkscape:label="Warstwa 1">
    <path
       sodipodi:nodetypes="saasssssaaacssacscsssaasssscsssssssssssassssscssssss"
       id="path_1"
       d="m 131.98341,236.75013 c -8.80272,-1.82633 -14.71639,-3.23295 -19.56535,-8.4192 -4.70334,-5.03049 -5.04746,-12.84307 -6.8737,-19.48326 -0.55295,-2.01052 -0.59462,-5.46873 -1.22817,-6.13379 -1.95328,-2.05043 -6.121157,-1.6945 -16.486261,4.53583 -11.122898,6.68584 -19.80123,10.35809 -28.957877,12.03708 -9.504204,1.74274 -19.7485,2.58357 -25.223417,0.52282 -5.234279,-1.97018 -9.444831,-6.18464 -12.382844,-12.39436 -1.758765,-3.71726 -1.103175,-6.41033 -2.337647,-9.39044 -0.958839,-2.31472 -2.775677,-4.18923 -3.873817,-6.4412 -1.82542,-3.74341 -3.839249,-7.55037 -4.470994,-11.66694 -0.312143,-2.03399 0.168313,-5.26913 0.378842,-6.16177 1.692831,-7.17832 9.162548,-15.04391 17.430962,-18.35475 4.014681,-1.60755 17.079013,-5.01194 19.269048,-5.02125 1.408668,-0.006 2.874731,-0.60712 3.618812,-1.71545 0.948405,-1.41268 0.959862,-2.41535 0.277257,-5.097 -1.307333,-5.13579 -1.761358,-8.35071 -2.083779,-14.75523 -0.758772,-15.07246 0.110225,-28.79834 2.3808,-37.604435 2.947961,-11.433396 12.711589,-29.342901 20.524179,-37.647738 4.045267,-4.300143 12.469442,-11.386232 16.539316,-13.912252 7.47966,-4.642336 18.48252,-8.679531 30.99168,-11.371558 5.4392,-1.170538 15.4482,-1.60269 23.08444,-0.631887 8.00573,1.017778 16.01431,3.155386 23.26582,6.697031 11.67923,5.704148 21.7715,12.407971 31.54482,22.921589 10.18492,10.956404 15.71815,20.55313 18.75205,32.523206 1.31699,5.196115 2.55749,15.395374 2.91227,23.944794 0.3193,7.69414 -0.53163,22.08108 -1.61187,27.25208 l -0.60799,2.91042 0.70819,0.50656 c 1.07357,0.76789 3.59113,3.45447 5.67732,6.05841 1.0274,1.2824 2.17511,2.49005 2.55048,2.68366 0.37539,0.19361 1.95979,0.65949 3.52094,1.03529 9.24822,2.22622 20.02123,8.43425 24.73812,14.2555 1.77694,2.19297 3.42236,5.00085 3.9153,6.68141 0.64064,2.18408 0.93554,5.26759 0.64855,6.7809 -0.34002,1.79292 -2.28738,5.86502 -4.083,8.53785 -1.63576,2.43493 -2.12116,3.4885 -2.38948,5.18646 -0.10348,0.65484 -0.5335,1.8157 -0.95565,2.57968 -0.42211,0.76399 -1.11982,2.01843 -1.55045,2.78765 -0.43061,0.76922 -1.05281,2.81672 -1.74057,4.14975 -2.25128,4.36347 -3.72919,8.33495 -7.76792,12.5153 -5.54234,5.73665 -8.54554,6.9266 -18.28356,7.24436 -5.78898,0.1889 -9.20221,-0.21223 -13.88576,-1.63188 -5.71851,-1.73335 -12.22282,-5.67778 -20.51007,-10.65823 -7.96586,-4.78731 -13.26131,-6.95801 -16.5612,-7.54571 l -1.34765,-0.14577 -0.18008,7.06024 c -0.19946,7.8199 -0.36086,8.81948 -1.92267,11.90472 -1.23135,2.43245 -3.28597,4.58152 -6.18562,6.46997 -3.12565,2.03563 -7.77335,4.31383 -10.08792,4.94487 -2.49963,0.6815 -5.11665,2.13233 -11.47216,2.11125 -4.24222,-0.0141 -5.50711,-0.11627 -8.10172,-0.65458 z"
       style="opacity:1;fill:#80ffff;fill-opacity:0.99000001;fill-rule:evenodd;stroke:none;stroke-width:0.964999;stroke-linecap:round;stroke-linejoin:round" />
    <path
       sodipodi:nodetypes="caassssaaacaassscacaccaaccccaaacscssssssssccccssssaascc"
       id="path_2"
       d="m 131.64929,237.68419 c -8.514,-1.38969 -16.33361,-4.69827 -21.48496,-10.84892 -4.07836,-4.86951 -3.56661,-12.19349 -5.47129,-18.25297 -0.55411,-1.76283 -0.62177,-4.26343 -1.73265,-5.26586 -1.06087,-0.9573 -1.39642,-1.05355 -3.162215,-0.90712 -2.431071,0.2016 -6.937534,2.32455 -15.033467,7.08207 -15.705957,9.2295 -27.335029,12.45203 -42.566695,11.7956 -7.529248,-0.32447 -10.308546,-1.89228 -14.723912,-4.51007 -2.34584,-1.3908 -4.520579,-3.33568 -5.855838,-5.71357 -2.203212,-3.92359 -3.160944,-8.65981 -3.019865,-13.15745 0.0308,-0.9819 1.590239,-0.98543 0.838008,-2.82549 -0.930793,-2.27685 -2.263113,-2.5551 -3.200121,-3.97468 -1.65215,-2.50304 -3.422009,-5.05378 -4.226205,-7.94308 -0.857523,-3.0809 -1.153153,-7.77836 -0.517465,-9.58007 1.9186,-5.43789 10.391828,-13.91608 16.543179,-16.55285 2.210143,-0.94738 11.772344,-3.4972 16.918992,-4.51156 3.876358,-0.76399 6.863042,-0.57184 7.961881,-3.02859 1.551505,-3.4688 -2.340268,-9.66726 -2.628595,-14.6056 -0.84131,-14.4096 -1.466695,-29.70284 2.658268,-43.220738 1.342905,-4.404969 2.716634,-8.832643 4.67749,-12.99944 2.314065,-4.917362 6.207495,-11.066361 8.302466,-14.03165 5.020469,-7.610541 12.167711,-14.744632 19.092412,-20.164523 4.11937,-3.164396 8.631018,-5.873209 13.360717,-8.020896 5.385635,-2.44554 11.127245,-4.106373 16.888885,-5.444019 4.28339,-0.99445 11.73169,-1.898547 13.05461,-1.898547 3.60738,1.86872 -1.68491,8.96514 4.80068,10.82895 6.45184,1.628506 18.59188,-1.12637 21.99233,-3.091605 0.96697,-0.659397 2.15868,-1.043421 3.77516,-1.216527 2.5464,-0.239126 8.83939,3.154131 12.99969,5.295209 4.61088,2.372964 9.31608,4.821049 13.14945,8.313388 10.22905,9.319031 19.92707,20.143855 25.34753,32.875563 6.28576,14.76414 7.0467,28.759185 7.10761,47.611945 0.004,5.0035 -0.17831,7.54994 -0.77817,10.89203 l -0.78293,4.36183 2.75839,2.76545 c 1.8547,1.85945 2.97661,3.34039 3.42455,4.5204 0.74475,1.96195 0.56944,1.86976 7.67977,4.03859 2.13284,0.65057 5.26561,1.90874 6.96167,2.79592 4.53281,2.37103 11.7375,7.31759 13.66906,9.38481 0.92609,0.99114 2.5423,2.65636 3.59156,3.70049 1.30479,1.29839 2.16223,2.58287 2.7128,4.06396 2.17837,5.86001 -0.36076,12.61445 -4.742,12.61445 -1.84277,0 -4.14805,2.10722 -4.16917,3.81096 3.72324,5.30112 0.16074,6.78524 -0.92278,12.43917 -0.20543,1.11343 -0.30082,3.31034 -2.15854,5.2346 -3.5682,2.03548 -4.30804,6.24119 -7.19105,9.16755 -4.00235,4.04456 -8.09982,5.35509 -16.86792,5.395 -10.57183,0.0481 -17.34244,-2.20851 -31.23354,-10.41006 -8.05346,-4.75491 -12.06412,-6.68816 -15.67082,-7.55377 -2.13487,-0.51237 -2.77265,-0.54839 -3.14388,-0.17756 -0.31258,0.31224 0.45814,3.61393 0.43542,5.42939 -0.0506,4.04418 0.48992,8.42621 -1.27237,12.06658 -2.05421,4.24337 -6.25323,7.09699 -10.11257,9.88786 -7.6321,5.51912 -28.03368,3.53545 -28.03368,3.53545 z"
       style="opacity:1;fill:#00ffff;fill-opacity:1;fill-rule:evenodd;stroke:none;stroke-width:1.36472;stroke-linecap:round;stroke-linejoin:round" />
    <path
       sodipodi:nodetypes="sssccsssssscsssssaaccasscaaaaaaasssssscsccsssccccsssccsacscssssssssssssssssssssssssccss"
       id="path_3"
       d="m 207.22849,221.27341 c -2.24747,-0.67689 -9.90729,-4.40373 -17.02186,-8.28188 -7.11456,-3.87815 -14.70498,-7.54041 -16.86764,-8.13836 -2.77984,-0.7686 -3.78677,-1.92237 -3.43619,-3.93733 2.0938,-12.03456 2.07637,-12.16535 -2.26679,-17.02623 -5.10527,-5.71376 -11.86231,-7.36982 -30.40833,-7.45268 -14.71131,-0.0657 -22.65156,1.77921 -29.22021,6.78936 -6.58458,5.02231 -8.957716,9.87398 -6.80093,13.90396 1.48804,2.78043 1.3009,3.1805 -1.487726,3.1805 -0.800313,0 -3.662441,-0.0458 -6.398136,1.48653 l -10.117245,5.66678 c -10.949684,6.13303 -21.396016,12.46441 -35.578433,12.14011 -2.962239,-0.14045 -3.551029,-0.2118 -0.04988,-1.27216 2.140479,-0.64827 7.528613,-3.49378 11.973666,-6.32337 4.445053,-2.82958 9.260549,-5.58775 10.701152,-6.12925 1.440577,-0.54151 3.873205,-2.61336 2.619243,-2.71867 -7.088769,-0.59533 -15.763248,3.05398 -22.605206,1.77334 -3.901866,-0.73033 -8.86885,1.31449 -11.835104,-1.32355 -1.065017,-0.94718 -1.630231,-2.90274 -0.967978,-4.16481 4.64983,-8.86129 17.326423,-6.98857 27.924734,-11.02269 5.382114,-2.41944 14.331153,-1.53501 14.967082,-9.45378 0,-4.16217 -10.532474,-9.36371 -17.115148,-10.08937 -11.6921,-1.28891 -29.220238,7.60496 -33.573453,10.86838 -2.476395,1.85645 -5.851425,4.58733 -6.814032,5.15396 -2.398289,1.41171 -6.85676,-5.03591 -6.851812,-9.01988 0.0056,-4.43833 7.732521,-13.03197 14.214687,-16.02809 5.209089,-2.40769 11.475218,-0.49372 17.212151,-0.35521 3.103668,0.0749 6.377446,1.71184 9.29161,0.64132 1.808524,-0.66436 3.411002,-2.25168 4.137455,-4.03617 3.49215,-8.57827 -1.754199,-18.57748 -0.682827,-27.77715 1.035541,-8.89201 2.690211,-18.03127 6.812005,-25.97802 2.343174,-4.517605 5.316658,-9.342833 9.841415,-11.672161 5.05414,-2.601853 16.998336,6.856865 16.998336,-1.371983 0,-1.561098 1.853635,-11.49878 6.636024,-23.305842 2.90542,-7.173086 7.8361,-15.508283 11.36847,-21.714166 6.49428,-11.409516 14.67593,-15.345011 14.8763,-15.144644 0.15574,0.155744 -8.88057,7.040805 -12.85543,15.532542 -2.79969,5.98113 -5.49721,8.969686 -8.10852,16.2111 -5.31552,14.740403 -7.814829,28.87211 -7.844107,31.720321 5.790997,3.781593 8.450377,-1.507471 11.778307,-1.897747 6.50896,-0.763326 11.87518,-0.230627 22.31508,1.382884 2.88115,0.467548 5.23825,0.256824 5.23793,-0.468277 0,-1.958995 18.52493,-1.123452 19.1879,0.865407 0.39701,1.191032 1.25656,1.117838 2.94071,-0.250416 2.0533,-1.668143 2.23171,-1.539141 1.30048,0.940402 -0.6618,1.762116 -0.33597,3.345403 0.8423,4.093032 0.001,9.818058 -3.39077,3.159928 9.54612,1.265112 3.29303,0 3.51988,0.34792 2.03546,3.121606 1.02734,14.29957 12.66493,12.23366 4.89472,2.57898 -1.57139,-1.94053 -1.50519,-2.51257 0.37418,-3.23375 1.25576,-0.48189 2.28324,-0.1744 2.28324,0.68331 0,0.85772 1.17864,1.32237 2.61925,1.03255 3.52435,-0.70902 6.07044,1.84368 5.19144,5.20496 -0.50401,5.24375 10.08472,-1.06949 12.53614,-2.88975 2.5473,-1.92746 5.24137,-3.5047 5.98686,-3.50497 1.53451,-5.5e-4 0.84159,19.99723 -0.13785,29.9237 -0.89869,9.10803 -14.91517,6.59764 -5.24197,26.95175 -4.2426,5.95819 -0.89736,5.94711 5.25645,-0.0174 l 4.6506,-4.50755 8.75409,3.01184 c 8.87579,3.05372 23.76908,13.27895 25.35295,17.40651 0.47633,1.24127 1.54432,1.83766 2.37332,1.32531 0.82907,-0.51235 1.50735,-0.27441 1.50735,0.52877 0,0.80317 -0.8419,1.8532 -1.87089,2.33339 -1.49672,0.69846 -1.49672,1.0477 0,1.74616 1.02899,0.4802 1.87089,1.82723 1.87089,2.99342 0,3.91706 -6.72449,2.18891 -14.64749,-3.7643 -8.62266,-6.47895 -21.73753,-12.01331 -31.00215,-13.08265 -5.4532,-0.62941 -5.7454,-0.49474 -3.27803,1.51091 2.62297,2.13215 1.09762,5.12764 -1.72331,3.38421 -1.56567,-0.96766 -11.11404,8.68322 -9.84576,9.9515 0.50655,0.50655 1.8555,0.5624 2.99765,0.12412 2.5014,-0.95988 10.91393,5.65818 14.25896,11.2174 1.32524,2.20246 3.51419,3.91092 4.86431,3.79659 1.35014,-0.11433 2.4548,0.67144 2.4548,1.74616 0,1.07472 0.7701,2.21074 1.71133,2.52448 2.31867,0.7729 -1.06178,7.16256 -3.78934,7.16256 -1.08498,0 -6.61781,-1.73939 -12.29519,-3.86532 -14.34084,-5.37 -15.56099,-5.67531 -15.56099,-3.89365 0,0.86373 1.42592,2.02299 3.16873,2.57613 1.74281,0.55315 6.40927,4.26333 10.36989,8.24485 4.66786,4.69251 8.94998,7.55272 12.17253,8.13055 2.73426,0.49028 8.00222,1.46632 11.70657,2.16899 l 6.73521,1.27757 -8.23191,0.0353 c -4.52755,0.0195 -10.07075,-0.51847 -12.3182,-1.19535 z"
       style="opacity:1;fill:#00bfbf;fill-opacity:1;fill-rule:evenodd;stroke:none;stroke-width:5.45886;stroke-linecap:round;stroke-linejoin:round" />
    <path
       sodipodi:nodetypes="aaacssaaaasacssaaaaaaaaaa"
       id="path1006"
       d="m 119.22229,136.74543 c -2.05243,-4.09931 -1.77923,-9.05267 -1.78362,-13.63708 -0.002,-2.50879 0.47593,-5.00338 0.96179,-7.46468 0.23125,-1.17148 0.92662,-3.46034 0.92662,-3.46034 0,0 -3.72668,-1.01039 -3.72668,-1.92327 0,-0.52235 0.46455,-1.31695 0.88236,-1.50925 1.06309,-0.48931 4.69503,0.21797 7.00657,0.60863 2.07996,0.35153 4.12368,0.91697 6.13446,1.55462 1.36881,0.43407 2.68749,1.0131 4.02267,1.54163 2.12995,0.84314 4.26649,1.6733 6.36175,2.59928 1.39045,0.6145 3.4619,1.35026 4.11762,1.96058 0.99414,0.92531 0.40716,1.53594 -0.0698,2.00445 -0.59552,0.585 -2.50398,0.0425 -2.50398,0.0425 0,0 0.60023,3.73581 0.56454,5.61735 -0.0515,2.71608 0.0398,5.53079 -0.18935,7.97615 -0.31889,3.40254 -1.72989,7.07576 -4.33056,9.29284 -2.66083,2.26836 -6.69928,3.72747 -10.0891,2.87041 -3.73857,-0.94524 -6.5589,-4.62566 -8.28532,-8.07382 z m 18.68845,-13.163 c 0.56781,-0.98094 0.50967,-2.63239 -0.33931,-3.38331 -0.96036,-0.84944 -2.88118,-0.75864 -3.84538,0.0864 -0.77959,0.68327 -0.90016,2.12681 -0.47693,3.07311 0.34204,0.76478 1.27293,1.30377 2.10822,1.36834 0.92996,0.0719 2.08612,-0.33733 2.5534,-1.14457 z"
       style="opacity:1;fill:#000000;fill-rule:evenodd;stroke:none;stroke-width:0.482499;stroke-linecap:round;stroke-linejoin:round" />
    <path
       sodipodi:nodetypes="caasaasccssssccaccaaaaaa"
       id="path1008"
       d="m 195.84903,130.74166 c -0.71731,-1.43707 -0.99148,-3.06964 -1.23739,-4.65685 -0.35318,-2.27967 -0.41956,-4.6076 -0.32998,-6.91272 0.064,-1.64788 -0.14974,-1.67162 0.6187,-4.90852 0,0 -1.43303,0.2544 -1.8533,-0.20342 -0.23389,-0.25479 -0.16295,-0.72025 -0.0247,-1.0373 0.60527,-1.38855 2.17832,-2.15647 3.40193,-3.01275 l 2.3703,-1.65873 3.97548,-3.08028 4.10484,-3.08416 c 0.67879,-0.51001 1.87603,0.50123 1.63011,1.34483 -0.12387,0.42492 -1.21101,1.42282 -1.60855,2.04418 -0.70088,1.09547 -0.71663,0.70199 -0.34955,2.34261 0.48758,2.17911 0.94761,9.14527 0.95663,14.48594 0.0702,2.71959 -0.0516,5.75831 -0.98511,8.19599 -0.76592,1.81678 -1.51128,4.01905 -3.25543,4.93845 -1.27012,0.66952 -3.26533,0.55863 -4.30667,-0.0764 -1.58301,-1.02135 -2.35115,-3.20832 -3.10731,-4.72084 z m 9.20305,-16.97083 c 0.72975,-0.46568 1.01993,-1.56035 0.93713,-2.42206 -0.0993,-1.03299 -0.64136,-2.41734 -1.65571,-2.63647 -0.69148,-0.14938 -1.4885,0.52204 -1.76996,1.17107 -0.50655,1.16807 -0.30677,2.91273 0.63834,3.76582 0.4588,0.41413 1.32918,0.45412 1.8502,0.12164 z"
       style="opacity:1;fill:#000000;fill-rule:evenodd;stroke:none;stroke-width:0.482499;stroke-linecap:round;stroke-linejoin:round" />
    <path
       sodipodi:nodetypes="caaaaaaaaaaaassacc"
       id="path1010"
       d="m 163.54132,152.5264 c -0.49628,-0.52613 -0.35135,-2.25453 -0.22948,-3.37578 0.24472,-2.25143 0.47663,-4.7648 1.90635,-6.52114 1.31731,-1.61824 3.448,-2.76136 5.52705,-2.93902 1.89267,-0.16173 3.91342,0.61648 5.41255,1.78308 0.89906,0.69964 1.36565,1.84537 1.83401,2.88385 0.48155,1.06771 0.78809,2.21969 0.97428,3.37608 0.096,0.59635 0.46316,1.35269 0.0694,1.81076 -0.39262,0.45679 -1.28164,0.51693 -1.79558,0.20282 -0.61704,-0.37711 -0.51438,-1.35176 -0.76657,-2.02952 -0.41629,-1.11878 -0.53961,-2.39028 -1.23235,-3.36244 -0.64684,-0.90774 -1.5245,-1.79187 -2.59198,-2.11262 -1.10631,-0.33242 -2.40705,-0.15424 -3.44819,0.34623 -1.08595,0.522 -1.89706,1.55696 -2.52851,2.58314 -1.44137,2.34239 -0.20377,5.87635 -1.28196,7.44108 -0.22819,0.33116 -0.78532,0.28121 -1.18428,0.23052 -0.24354,-0.0309 -0.47605,-0.11694 -0.66477,-0.31704 z"
       style="opacity:1;fill:#000000;fill-rule:evenodd;stroke:none;stroke-width:0.482499;stroke-linecap:round;stroke-linejoin:round" />
    <path
       sodipodi:nodetypes="cssssccssssccscccssscccsscsssssssscsccscccaac"
       id="path_4_0"
       d="m 171.13551,187.88805 c -0.87745,-3.05559 -1.6026,-2.29459 -2.28126,-3.51347 -0.73272,-1.31597 -0.99235,-3.08042 -1.92029,-4.09029 -1.20971,-1.31652 -1.53972,-1.40062 -6.22737,-1.58737 -4.62714,-0.18435 -6.19985,-0.30376 -14.96952,-1.13665 -5.28304,-0.50175 -6.94332,-0.58566 -11.50593,-0.5815 -4.62733,0.004 -14.20749,0.47002 -14.59521,0.70964 -0.0724,0.0448 -1.9748,0.38173 -4.22744,0.74879 -2.25266,0.36706 -5.1541,0.95779 -6.44765,1.31274 -1.29358,0.35495 -3.85739,0.90029 -5.69741,1.21188 -3.919317,0.6637 -4.554237,0.82095 -5.739097,1.42136 -1.68701,0.85487 -2.48175,0.70669 -3.59725,-1.1436 -1.187739,-1.51664 -2.95689,-1.91294 -4.68667,-2.81503 -2.64652,-1.38801 -5.26531,-2.42354 -10.38754,-4.10748 -8.36573,-2.75025 -14.43498,-5.48258 -15.15129,-6.82101 8.546854,1.7756 18.932833,7.45911 25.76552,2.52605 3.035937,-3.7683 3.749276,-7.24441 5.42692,1.16774 0.29078,1.46958 0.79373,2.46855 1.5729,3.12419 0.51289,0.43156 0.71728,0.49153 1.33747,0.39236 1.05764,-0.16913 1.73056,-0.57261 1.98683,-1.19131 0.277257,-0.66939 -3.842483,-16.1657 -4.541223,-17.41092 8.67033,11.25643 13.78213,14.93463 18.52083,14.55208 6.14916,-1.25843 7.89773,-2.77685 11.90625,-1.32292 2.63957,0.0482 3.76987,-0.42652 5.52341,0.13647 l 7.89489,2.53476 c 3.22489,1.03539 7.18367,-2.12985 10.13455,0.73389 0.98997,0.96072 1.86005,1.41104 3.42971,1.77507 0.67342,0.15618 1.51646,0.42323 1.87341,0.59345 0.58235,0.2777 0.8077,0.28336 2.19398,0.055 1.96657,-0.32392 2.30174,-0.29248 2.9817,0.27966 0.75739,0.6373 1.22962,0.72524 3.21688,0.59907 2.78204,-0.17663 6.26414,-1.23469 7.87823,-2.39385 0.5841,-0.41945 1.29733,-0.66264 2.94632,-1.00459 2.34101,-0.48545 2.91362,-0.71701 4.33996,-1.75505 0.74184,-0.53988 1.1551,-0.69524 2.11331,-0.79441 0.8777,-0.0909 1.59277,-0.33289 2.71764,-0.91991 1.57631,-0.82259 2.72749,-1.04047 3.16831,-0.59966 0.15793,1.53344 -2.33393,3.65788 -3.77656,4.43673 -1.07324,1.61504 -1.20158,0.85518 -2.13654,2.09959 -0.6786,0.90318 -1.37485,2.01033 -1.54725,2.46033 -0.45938,1.21024 0.234,1.4871 0.50391,2.623 -0.83214,1.71211 -5.92015,3.50026 -5.83086,5.01545 0.0458,0.74556 -0.12762,2.0874 -0.87083,2.64178 -0.34636,0.25835 -0.98574,0.33912 -1.29574,0.0381 -4e-5,-4e-5 0,-1.6e-4 0,-1.6e-4 z"
       style="opacity:1;fill:#008080;fill-rule:evenodd;stroke:none;stroke-width:0.682358;stroke-linecap:round;stroke-linejoin:round;fill-opacity:1" />
    <path
       sodipodi:nodetypes="scsaacsssscsscs"
       id="path_4_1"
       d="m 186.53125,207.69792 c -0.5652,-0.27761 -1.5585,-0.80243 -2.20729,-1.16628 -4.48654,-2.51602 -7.18335,-2.63376 -11.14562,-3.581 -2.50674,-0.59928 -1.97016,-2.25913 -2.15709,-3.66403 -0.15933,-1.1974 0.56288,-2.35342 0.95792,-3.49494 0.2909,-0.84063 1.03482,-1.51715 1.03626,-2.4592 0,-1.49806 0.12293,-2.67021 0.33272,-3.17229 0.11454,-0.27411 0.15184,-0.29784 0.32364,-0.20589 0.48572,0.25995 1.71955,2.37037 1.98053,3.38759 0.10658,0.41547 0.1001,0.45585 -0.10879,0.6782 -0.13949,0.14847 -0.32912,0.23887 -0.5098,0.243 -0.38529,0.009 -0.62331,0.11136 -0.54155,0.23332 0.0367,0.0547 0.39693,0.34211 0.80052,0.63859 3.09341,2.27247 12.54403,12.23417 12.30027,12.96544 -0.0201,0.0599 -0.45911,-0.10652 -1.06172,-0.40251 z"
       style="opacity:1;fill:#008080;fill-rule:evenodd;stroke:none;stroke-width:0.34118;stroke-linecap:round;stroke-linejoin:round;fill-opacity:1" />
    <path
       id="path_4_2"
       d="m 63.49997,214.31249 c 0,-0.0824 0.7689,-0.67188 1.09776,-0.84162 0.10564,-0.0545 0.42248,-0.17644 0.7041,-0.27089 1.81391,-0.60835 10.00887,-5.26903 14.66845,-8.34232 1.24685,-0.82237 1.79115,-1.22447 3.06758,-2.2661 0.54118,-0.44165 1.46677,-1.14803 2.05682,-1.56975 1.41991,-1.0148 1.8329,-1.42437 2.16799,-2.1501 0.33806,-0.73218 0.50078,-0.89715 1.04455,-1.0591 0.62032,-0.18473 1.09861,-0.51889 2.13982,-1.49491 1.05497,-0.98893 1.39599,-1.27152 1.59454,-1.32135 0.0788,-0.0198 0.36409,0.0444 0.63402,0.14255 0.26993,0.0982 0.6396,0.2331 0.8215,0.29985 0.54957,0.20165 1.30768,0.16817 2.36146,-0.10429 1.17102,-0.30278 1.66423,-0.34567 2.37263,-0.20632 1.29937,0.25558 2.28316,1.01929 2.9589,2.29693 0.37375,0.70665 0.36044,0.85572 -0.0862,0.9662 -0.1819,0.045 -0.92603,0.11205 -1.65363,0.14901 -1.94255,0.0987 -2.94865,0.3404 -4.97769,1.19587 -1.91087,0.80564 -4.401,2.12519 -9.54132,5.0561 -4.36981,2.49157 -6.13632,3.4549 -8.67643,4.73146 -5.89595,2.96311 -9.38488,4.35817 -11.82878,4.72979 -0.67368,0.10245 -0.92604,0.11852 -0.92604,0.059 z"
       style="opacity:1;fill:#008080;fill-rule:evenodd;stroke:none;stroke-width:0.24125;stroke-linecap:round;stroke-linejoin:round;fill-opacity:1" />
    <path
       sodipodi:nodetypes="csscssscscsssssaaacc"
       id="path_4_3"
       d="m 126.59141,234.16795 c -2.47154,-0.69789 -5.26338,-1.78214 -7.20111,-2.73939 -1.01063,-0.49924 -2.3811,-1.30826 -2.80813,-1.65768 l -0.23387,-0.19137 0.23387,0.0634 c 0.12864,0.0349 1.11786,0.48448 2.19829,0.99906 2.94476,1.40252 4.14837,1.85064 6.12717,2.28126 1.13239,0.24643 4.12141,0.24935 5.1917,0.005 0.41159,-0.0939 1.17465,-0.19444 1.69566,-0.22332 l 0.94729,-0.0525 0.54941,0.33744 c 1.09633,0.67337 2.71195,0.85688 6.90121,0.7839 2.99106,-0.0521 4.74202,-0.1763 7.58631,-0.53811 3.83374,-0.48766 6.33416,-1.03142 9.26809,-2.01551 2.0668,-0.69323 2.93945,-0.90507 2.93945,-0.71355 0,0.32401 -3.11185,2.03474 -4.77161,2.86275 -1.15885,0.57812 -2.35287,1.11264 -3.60061,1.4595 -1.23189,0.34246 -2.51963,0.44328 -3.78854,0.60044 -2.21517,0.27436 -4.43771,0.56897 -6.66963,0.59701 -5.85651,-0.48444 -8.99732,-0.17874 -14.56495,-1.85833 z"
       style="opacity:1;fill:#008080;fill-opacity:1;fill-rule:evenodd;stroke:none;stroke-width:0.34118;stroke-linecap:round;stroke-linejoin:round" />
    <circle
       r="3.96875"
       cy="123.03125"
       cx="136.26042"
       id="path1066"
       style="opacity:1;fill:#e6e6e6;fill-opacity:1;fill-rule:evenodd;stroke:none;stroke-width:0.964999;stroke-linecap:round;stroke-linejoin:round" />
    <ellipse
       ry="3.96875"
       rx="2.6458333"
       cy="112.44791"
       cx="203.72916"
       id="path1068"
       style="opacity:1;fill:#e6e6e6;fill-opacity:1;fill-rule:evenodd;stroke:none;stroke-width:0.964999;stroke-linecap:round;stroke-linejoin:round" />
  </g>
</svg>
