<?xml version="1.0" encoding="UTF-8" standalone="no"?>
<svg
   xmlns:dc="http://purl.org/dc/elements/1.1/"
   xmlns:cc="http://creativecommons.org/ns#"
   xmlns:rdf="http://www.w3.org/1999/02/22-rdf-syntax-ns#"
   xmlns:svg="http://www.w3.org/2000/svg"
   xmlns="http://www.w3.org/2000/svg"
   xmlns:sodipodi="http://sodipodi.sourceforge.net/DTD/sodipodi-0.dtd"
   xmlns:inkscape="http://www.inkscape.org/namespaces/inkscape"
   sodipodi:docname="octopus_happy.svg"
   inkscape:version="1.0 (4035a4fb49, 2020-05-01)"
   id="svg8"
   version="1.1"
   viewBox="0 0 264.58333 264.58334"
   height="1000"
   width="1000">
  <defs
     id="defs2" />
  <sodipodi:namedview
     units="px"
     inkscape:window-maximized="1"
     inkscape:window-y="-11"
     inkscape:window-x="-11"
     inkscape:window-height="986"
     inkscape:window-width="1920"
     showgrid="true"
     inkscape:document-rotation="0"
     inkscape:current-layer="layer1"
     inkscape:document-units="mm"
     inkscape:cy="422.63158"
     inkscape:cx="422.32983"
     inkscape:zoom="1"
     inkscape:pageshadow="2"
     inkscape:pageopacity="0.0"
     borderopacity="1.0"
     bordercolor="#666666"
     pagecolor="#ffffff"
     id="base"
     showguides="false">
    <inkscape:grid
       id="grid833"
       type="xygrid" />
  </sodipodi:namedview>
  <metadata
     id="metadata5">
    <rdf:RDF>
      <cc:Work
         rdf:about="">
        <dc:format>image/svg+xml</dc:format>
        <dc:type
           rdf:resource="http://purl.org/dc/dcmitype/StillImage" />
        <dc:title></dc:title>
      </cc:Work>
    </rdf:RDF>
  </metadata>
  <g
     id="layer1"
     inkscape:groupmode="layer"
     inkscape:label="Warstwa 1">
    <path
       sodipodi:nodetypes="sssssssssaassaaaasssssssaaaaasaacaaaccaascsssccsssss"
       id="path_1"
       d="m 124.65007,236.64373 c -5.42036,-1.36797 -10.29838,-3.53769 -13.66626,-6.07861 -2.24636,-1.69479 -5.3884,-5.04942 -6.55235,-6.99572 -0.49723,-0.83143 -1.31006,-2.59257 -1.80629,-3.91369 -1.50886,-4.01704 -1.93775,-6.41107 -2.09865,-11.71408 -0.0794,-2.61938 0.9492,-6.78495 0.83067,-6.91232 -0.66799,-0.71787 -5.655177,3.12142 -13.219617,8.00489 -7.94779,5.13096 -12.41677,5.86951 -16.16792,6.74825 -2.41094,0.56478 -16.92111,1.81922 -19.94114,1.1803 -9.02491,-1.90926 -17.63476,-7.79295 -22.45945,-15.50548 -1.5959,-2.55113 -1.1552,-5.92213 -1.36202,-8.92419 -0.12883,-1.86988 0.3914,-5.14037 0.078,-5.62239 -0.23776,-0.36568 -1.39383,-1.71439 -2.56905,-2.99709 -2.33342,-2.54678 -6.15322,-6.15413 -8.45572,-9.80422 -0.66009,-1.04641 -1.28057,-2.17939 -1.49258,-3.39831 -0.52925,-3.04283 -0.36615,-6.32414 0.64274,-9.24323 0.92824,-2.68574 2.74151,-5.08111 4.78609,-7.05455 2.52366,-2.43585 5.8255,-4.14959 8.9112,-5.59559 3.52407,-1.65145 5.45722,-2.0479 12.91836,-2.6493 11.18743,-0.90175 10.40628,-0.62661 11.75626,-4.14072 1.0941,-2.84801 1.11061,-3.18186 0.42849,-8.65846 -0.50813,-4.07958 -0.8718,-13.62665 -0.72723,-19.0901 0.27749,-10.48485 2.10886,-20.390374 5.20967,-28.178114 2.33558,-5.86586 5.9255,-12.65231 10.5288,-19.90389 6.13712,-9.66779 12.0858,-16.78856 20.69359,-22.01892 12.612057,-7.66349 27.858737,-11.4058 42.602557,-12.04817 16.08179,-0.70065 33.17242,1.58838 47.4355,9.05025 10.75275,5.62542 19.14581,15.47006 25.99695,25.48649 5.44646,7.96278 8.72338,17.33493 11.38997,26.60634 1.81075,6.29578 2.51677,11.905944 3.04614,19.415494 0.537,7.6179 -1.16141,16.71487 -1.63234,25.07897 -0.0945,1.67898 -0.44935,3.37073 -0.23951,5.03923 0.15273,1.21441 -0.12722,2.5837 1.0771,3.51041 1.80951,1.39239 3.14131,2.23082 4.59968,3.48527 0.88677,0.76277 1.50686,1.85298 2.51353,2.44862 4.89647,2.89717 11.21516,2.48029 16.32461,4.98281 3.38195,1.65642 6.91211,4.20569 9.22986,6.51473 3.44607,4.36912 5.68028,9.91945 4.61976,14.77691 -0.26483,1.08439 -0.55436,2.67719 -1.02619,3.95475 -1.36492,3.69575 -4.08735,6.83842 -5.18013,10.62358 -1.35874,4.70638 -1.013,8.07697 -1.59041,14.60945 -0.44095,4.98865 -2.47295,8.9009 -6.65259,13.22963 -1.78162,1.79742 -2.54712,2.35106 -4.63021,3.34891 -4.20687,2.0152 -8.59734,2.75138 -14.7988,2.4814 -10.05507,-0.43776 -18.37077,-3.49666 -39.12164,-14.3908 -9.17668,-4.81769 -17.25033,-7.74813 -17.84294,-7.74813 -5.66369,5.28905 -0.85897,12.64448 -3.62186,18.42558 -1.16382,2.36855 -3.41265,5.3835 -4.85015,6.5025 -2.57808,2.0069 -7.37945,3.95844 -13.54154,5.50403 -5.20822,1.30635 -9.14014,1.86163 -14.15521,1.99911 -3.49051,0.0956 -4.41613,0.0329 -6.2177,-0.42183 z"
       style="opacity:1;fill:#ff6666;fill-opacity:1;fill-rule:evenodd;stroke:none;stroke-width:0.964999;stroke-linecap:round;stroke-linejoin:round" />
    <path
       sodipodi:nodetypes="sacsasascccccassassssssssccccsssssssaccacscaccaassccccccscccccccacacssscsssccsssaccscaccacscsssaasas"
       id="path_2_0"
       d="m 106.63909,227.27996 c -3.11402,-3.19206 -5.16907,-7.49743 -6.26691,-11.81959 -1.125017,-4.42918 -0.13652,-13.7088 -0.13652,-13.7088 0,0 -8.051867,5.82843 -12.565357,7.81996 -0.94376,0.41642 -4.2724,2.96578 -6.68558,3.85869 -6.68616,2.47396 -12.46047,3.7471 -21.02133,3.94093 -7.45034,0.16869 -15.68699,-0.77633 -21.77246,-5.07786 -4.76949,-3.37132 -9.44521,-9.859 -9.44521,-14.75847 0,-1.72524 1.60375,-1.18308 2.70626,-1.02126 2.9053,-0.52055 2.80903,-9.93898 6.36509,-11.33086 1.03317,-0.32792 11.34623,2.98119 12.36453,3.92618 8.82306,6.02959 33.87391,3.95608 35.15842,-13.3058 -3.4442,-6.61901 -20.03494,-8.56122 -31.30386,-5.89013 -4.25569,1.09025 -10.93947,4.16009 -15.87539,7.23519 -2.87542,1.7914 -3.81929,1.42549 -7.85977,6.44348 -0.64153,0.79674 -0.82355,2.46909 -1.69756,2.46149 -3.16798,-0.0275 -5.33518,-3.53545 -7.34879,-5.96406 -2.45534,-2.9614 -5.23728,-6.58194 -5.48676,-10.15297 -0.0871,-1.24617 0.86905,-2.98133 1.95016,-3.20022 0.36595,-0.0741 1.26003,0.3874 1.98684,1.02555 0.72678,0.63812 1.45611,1.07699 1.6207,0.97525 0.16463,-0.10173 0.38389,-1.66848 0.48726,-3.4817 0.10911,-1.91341 0.43497,-3.77436 0.77663,-4.43505 0.7166,-1.38576 3.41892,-3.88842 4.19862,-3.88842 0.31126,0 2.5418,-0.98627 4.95676,-2.19171 5.32566,-2.65835 8.36139,-3.65543 12.05709,-3.96009 3.54774,-0.74237 6.89242,-1.61207 10.3484,-2.68123 3.19532,-0.82743 8.36246,0.30623 8.36486,2.43146 2.3514,3.32368 5.80314,-2.81976 4.06628,-6.69465 -0.42987,-0.92607 -0.9216,-3.00556 -1.09273,-4.62105 -0.29406,-2.7762 -1.35827,-6.22561 -1.92164,-6.22867 -0.14174,-8e-4 -0.37426,-0.80121 -0.51671,-1.77875 -0.14245,-0.97754 -0.50906,-2.41188 -0.81468,-3.18744 -0.45701,-1.15967 -0.48416,-1.92386 -0.15287,-4.30304 0.22153,-1.59112 0.56956,-4.15579 0.77337,-5.69927 0.65747,-4.97873 3.7237,-12.76925 6.05235,-15.37753 1.14493,-1.2824 0.67247,-1.7042 0.5869,-2.58298 -0.5488,-5.635984 -14.90923,1.14231 -6.88915,-15.528354 1.43069,-2.8364 2.44086,-2.22647 3.39548,-3.55979 1.98179,-2.21126 12.36159,-6.38767 12.41821,-12.1872 0.0208,-2.12998 -4.94384,-3.42821 -4.47256,-4.56414 3.02781,-4.12823 8.81778,-13.15356 14.59872,-14.01442 2.00863,-0.29911 1.32292,2.64583 3.0828,5.25478 18.083867,10.62022 6.61568,-9.91948 11.816207,-12.08873 10.47512,-4.36938 28.43916,-3.84532 34.04891,0.21937 15.4976,12.9124 8.76227,39.89387 13.14708,59.070344 1.98062,8.15637 6.92361,15.88306 6.69667,24.2734 -0.12386,4.57918 -4.21947,8.4522 -4.36562,13.03073 -0.17735,5.55603 2.38626,10.89151 4.2784,16.11843 3.10182,8.56861 8.46932,5.79303 10.8353,-1.67179 1.67548,-5.28626 0.34227,-8.62193 0.21635,-16.63489 1.0301,-12.58605 -1.12021,-24.06407 -1.37018,-36.78229 -0.0246,-1.646374 -0.33383,-4.487274 -0.33383,-9.778934 0,-1.32292 2.88862,10.526274 2.73506,14.620274 2.88477,18.24076 1.95549,36.71899 3.12589,53.84653 0.30015,3.66301 0.73167,7.31407 1.09751,10.97111 2.07055,1.5308 3.46067,2.05505 4.70019,1.77255 0.65381,-0.14901 1.91341,-0.23061 2.7991,-0.18132 11.37921,-4.10719 25.80811,1.1541 34.81678,-16.22537 1.98003,-3.92278 3.64213,-10.5642 3.64213,-10.5642 0,0 18.56124,15.68591 0.45429,19.62816 -7.22838,2.2766 -7.25976,6.63413 -20.33554,10.16649 -7.66547,2.02464 -15.5149,2.4897 -17.45812,5.03307 -1.02521,2.21395 1.62062,3.53686 5.58937,7.50561 1.6244,2.02133 4.2258,3.01438 6.22365,4.66757 4.27286,3.53571 8.04243,3.23448 12.29719,11.20743 1.55517,2.57048 5.46108,2.50614 8.20001,3.7407 2.47523,1.11568 5.01012,-1.11885 7.44072,3.31352 0.68641,1.2378 2.91251,1.6442 3.71433,0.67808 0.26482,-0.31912 0.79764,-0.58018 1.18404,-0.58018 0.55343,0 0.70255,0.27792 0.70255,1.30934 v 1.30935 l 2.71277,-0.0228 c 3.54216,-0.0299 7.76417,0.38225 7.76417,0.7579 0,0.46919 -0.99838,1.17335 -1.49722,1.05601 -0.74142,-0.17442 -1.84873,2.38299 -2.10868,4.87005 -0.0885,4.39859 5.01586,0.57332 7.68842,0.67762 0.67226,0.61617 -5.16516,3.77303 -8.88237,4.87648 -2.71454,0.80584 -12.16758,1.30853 -16.17184,0.81051 -7.02992,-0.87429 -17.50348,-5.81972 -26.34127,-11.03064 -4.24938,-2.50552 -9.42236,-5.79195 -14.42112,-8.12919 -3.12123,-1.45937 -9.66884,-3.65514 -9.66884,-3.65514 0,0 -2.34192,-1.15119 -0.003,-6.59619 5.08032,-6.43069 3.28156,-10.86187 -0.87423,-13.80388 -3.91479,-2.77139 -7.34985,-3.56389 -27.47707,-5.56207 -6.71392,-0.73634 -13.98682,-2.05723 -20.25748,0.45229 -3.64796,1.45992 -5.68864,4.42224 -8.71256,7.93993 -4.35882,5.33596 -1.33159,12.86072 0.93961,20.64855 1.02226,3.24661 3.27622,6.2643 6.06616,8.21411 2.4281,1.69692 7.08319,-0.11801 8.52781,2.50068 3.30361,4.85433 13.14577,1.00153 17.2791,3.42603 3.24148,1.90137 5.28172,7.58258 9.95657,5.28853 1.82706,-0.9321 8.55857,-1.82355 9.68387,-3.6443 1.22055,-1.97488 1.27968,-1.09252 0.0864,1.28815 -0.59378,1.18451 -2.08987,3.18227 -3.32465,4.43944 -1.96593,2.0016 -3.61792,2.56165 -5.61266,3.50168 -3.92624,1.85027 -8.05479,3.49374 -12.34785,4.13282 -6.45617,0.9611 -13.62052,0.86554 -19.57457,-0.5369 -5.32956,-1.25535 -10.49414,-4.13217 -14.31763,-8.05148 z"
       style="opacity:1;fill:#ff0000;fill-opacity:1;fill-rule:evenodd;stroke:none;stroke-width:1.36472;stroke-linecap:round;stroke-linejoin:round" />
    <path
       sodipodi:nodetypes="scssaaaaaaaassaaaaa"
       id="path1028"
       d="m 70.025353,137.51513 c -0.39426,-0.11051 -0.91414,-0.32287 -1.15525,-0.47191 -1.78983,-1.10616 -3.14635,-4.65 -3.76783,-9.84334 -0.26511,-2.21533 -0.23272,-8.3402 0.0542,-10.2526 0.56356,-3.75613 1.20442,-6.8027 3.27466,-9.39271 0.77117,-0.96478 1.91547,-2.08737 3.14407,-1.9607 1.86088,0.19186 3.05223,2.30029 4.05601,3.87893 1.08298,1.70319 1.44715,3.77914 1.93353,5.738 0.26515,1.06788 0.48138,2.15867 0.53154,3.25783 0.1582,3.46665 -0.13304,6.967 -0.73361,10.3849 -0.24994,1.42246 -0.55409,2.86868 -1.18634,4.16719 -0.77345,1.58851 -1.57183,3.43127 -3.11792,4.28637 -0.88681,0.49047 -2.11715,0.46477 -3.03308,0.20804 z m 4.62225,-20.01161 c 0.81049,-0.058 1.50967,-1.07847 1.53893,-1.8905 0.0403,-1.11907 -0.8104,-2.82459 -1.92779,-2.7512 -1.08526,0.0713 -1.69399,1.82264 -1.5068,2.894 0.14792,0.84663 1.03839,1.80899 1.89566,1.7477 z"
       style="opacity:1;fill:#000000;fill-rule:evenodd;stroke:none;stroke-width:0.482499;stroke-linecap:round;stroke-linejoin:round" />
    <path
       id="path1030"
       d="m 136.09117,143.80409 c -3.03448,-0.44606 -5.21367,-2.3482 -7.00312,-6.11285 -1.59967,-3.36535 -2.63433,-8.15154 -2.63972,-12.21115 -0.003,-1.86161 0.0418,-2.30626 0.36761,-3.6901 0.67704,-2.87562 1.817,-5.96351 2.86234,-7.75337 2.17794,-3.72916 4.9679,-5.356 8.39676,-4.89623 2.93934,0.39415 4.16399,1.21315 6.21697,4.15775 1.90458,2.73171 2.60194,4.46943 3.4345,8.55817 1.60272,7.87089 0.96724,12.95119 -2.14227,17.12631 -0.96057,1.28976 -3.30007,3.54401 -4.28342,4.12737 -1.20886,0.71712 -3.22533,0.98578 -5.20965,0.6941 z m 7.21302,-21.66457 c 0.8627,-0.43097 1.24941,-1.957 0.92781,-3.6614 -0.31654,-1.6776 -0.9998,-2.23176 -2.66999,-2.16545 -0.88058,0.035 -1.08997,0.0933 -1.58554,0.44158 -1.65436,1.16273 -1.81763,2.99778 -0.39346,4.42196 1.05831,1.05832 2.687,1.47994 3.72118,0.96331 z"
       style="opacity:1;fill:#000000;fill-rule:evenodd;stroke:none;stroke-width:0.482499;stroke-linecap:round;stroke-linejoin:round" />
    <path
       sodipodi:nodetypes="aaaaaaaaaaaaaa"
       id="path1032"
       d="m 100.93035,154.17873 c -1.478717,-0.0628 -3.000917,-0.43158 -4.282917,-1.17121 -1.42206,-0.82043 -2.62211,-2.07695 -3.5027,-3.46257 -1.0698,-1.68333 -2.51247,-3.71081 -2.00165,-5.63879 0.10957,-0.41358 0.54563,-0.8743 0.97196,-0.8383 0.93373,0.0788 1.20149,1.43838 1.79078,2.16694 1.395,1.72471 2.14184,4.23468 4.13029,5.21792 2.024007,1.00082 4.743427,1.10647 6.772807,0.11657 1.48103,-0.72242 2.06891,-2.57168 2.97572,-3.94756 0.53674,-0.81438 0.55225,-2.16509 1.45268,-2.53999 0.51742,-0.21543 1.32446,-0.0379 1.62394,0.43589 0.49209,0.77846 -0.12892,1.87377 -0.4977,2.71766 -1.00716,2.30471 -2.38576,4.71393 -4.52337,6.03932 -1.41432,0.87694 -3.2472,0.97468 -4.90984,0.90412 z"
       style="opacity:1;fill:#000000;fill-rule:evenodd;stroke:none;stroke-width:0.482499;stroke-linecap:round;stroke-linejoin:round" />
    <path
       id="path1034"
       d="m 104.47658,176.21624 c -0.21828,-0.0566 -0.90289,-0.34181 -1.52135,-0.63381 -0.61846,-0.29199 -2.57916,-1.08 -4.357077,-1.75114 -5.41149,-2.04275 -9.08936,-3.75055 -10.20032,-4.73642 -0.49652,-0.44063 -0.5448,-0.53213 -0.41188,-0.78046 0.0828,-0.15476 0.35769,-0.3497 0.61085,-0.43326 0.49863,-0.16457 0.53297,-0.15309 1.7024,0.56888 2.01269,1.24254 9.09582,3.48284 13.515927,4.2749 1.71394,0.30713 6.81466,0.30414 16.33802,-0.01 3.74716,-0.12346 8.86685,-0.22763 11.37708,-0.23151 l 4.56406,-0.007 5.49011,0.73462 c 3.01955,0.40402 6.47237,0.82873 7.67291,0.94377 1.20055,0.11504 2.82427,0.27019 3.60829,0.34477 1.65695,0.15762 2.11796,0.29605 2.05607,0.61738 -0.12221,0.63458 -2.40024,0.77952 -8.11175,0.51602 -8.02008,-0.36997 -14.69255,-0.51165 -20.76979,-0.44106 -5.21513,0.0606 -6.51074,0.11954 -10.45105,0.4754 -7.23246,0.65321 -10.15296,0.79738 -11.1125,0.54856 z"
       style="opacity:1;fill:#000000;fill-rule:evenodd;stroke:none;stroke-width:0.482499;stroke-linecap:round;stroke-linejoin:round" />
    <path
       sodipodi:nodetypes="ssscccsssscsssss"
       id="path1036"
       d="m 57.446903,215.63664 c -2.32336,-0.0903 -2.93008,-0.16113 -3.60495,-0.42098 -1.01851,-0.39213 0.0897,-0.6279 4.53099,-0.96398 3.12359,-0.23635 4.10906,-0.35412 6.7174,-0.80277 6.00827,-0.4414 9.82459,-2.90588 12.9204,-6.12603 3.43301,-3.18715 8.10714,-5.95564 11.86915,-8.08374 1.48757,-0.81647 2.52619,-1.67677 2.89346,-2.3967 0.36251,-0.71059 0.3284,-0.97284 -0.20302,-1.56107 -0.54369,-0.60179 -0.56308,-0.71598 -0.16536,-0.97337 0.88678,-0.57388 6.45851,-2.48365 7.24604,-2.48365 1.755667,0 2.645007,1.79385 2.654747,5.3548 0.006,2.00385 -0.54621,2.14598 -2.10305,2.33904 -2.430507,0.30144 -5.301737,2.29548 -13.056327,7.38874 -4.74385,3.11578 -6.72211,4.31726 -8.92969,5.42332 -2.9115,1.45873 -5.564,2.3536 -8.40052,2.83406 -2.47142,0.4186 -8.16092,0.63587 -12.36927,0.47233 z"
       style="opacity:1;fill:#000000;fill-rule:evenodd;stroke:none;stroke-width:0.482499;stroke-linecap:round;stroke-linejoin:round" />
    <path
       id="path1040"
       d="m 202.04407,217.89769 c -0.44736,-0.21164 -1.42962,-0.797 -2.18281,-1.30082 -3.32642,-2.22507 -11.46866,-6.77116 -19.62566,-10.95769 -4.16779,-2.13908 -6.59561,-3.24451 -8.42647,-3.83675 -2.16474,-0.70022 -2.95611,-1.19576 -2.38345,-1.49246 1.00544,-0.52097 4.86291,-0.0943 7.76721,0.8592 1.2481,0.40974 3.43911,1.41716 4.59989,2.11503 0.45323,0.27247 2.37189,1.51397 4.26366,2.75886 3.20762,2.11082 4.68288,3.1414 9.59114,6.70021 2.11513,1.53357 3.05663,2.16175 5.22552,3.48644 1.49836,0.91514 2.31511,1.57855 2.31511,1.8805 0,0.25807 -0.24596,0.21238 -1.14414,-0.21252 z"
       style="opacity:1;fill:#000000;fill-rule:evenodd;stroke:none;stroke-width:0.482499;stroke-linecap:round;stroke-linejoin:round" />
    <path
       sodipodi:nodetypes="ssscsaaassccss"
       id="path_3_1"
       d="m 123.22509,235.4071 c -6.6725,-1.45113 -14.10742,-5.40959 -17.0226,-9.06306 -2.23216,-2.79749 -5.3957,-9.14016 -5.3957,-10.81802 v -1.53461 l 5.47338,3.7274 c 4.44656,3.02815 6.36833,3.34225 9.65729,4.78927 2.49345,1.09702 5.00379,2.19743 7.6235,2.94434 2.67586,0.76291 5.4301,1.30954 8.20208,1.55117 4.43737,0.38679 14.34399,-0.97287 13.36146,-0.17393 -0.50933,0.41415 -0.92604,1.89931 -0.92604,2.38567 0,1.31789 -1.32308,0.82957 -2.87034,-0.18421 -6.21593,-0.84778 0.59397,3.98128 1.99581,3.99113 2.93333,0 2.75262,0.90787 -0.31245,1.56988 -7.74083,1.67188 -14.5556,1.95258 -19.78639,0.81497 z"
       style="opacity:1;fill:#bf0000;fill-opacity:1;fill-rule:evenodd;stroke:none;stroke-width:1.93;stroke-linecap:round;stroke-linejoin:round" />
    <path
       sodipodi:nodetypes="cscscssscc"
       id="path_2_1"
       d="m 233.3305,180.46865 c 0.25516,-0.1577 8.44496,-0.25728 13.02551,-0.2213 l 8.32829,0.0654 -0.54459,0.83116 c -0.29954,0.45712 -0.54928,1.30011 -0.55502,1.87331 -0.006,0.57316 -0.51369,1.70738 -1.12884,2.52044 -0.94303,1.24645 -1.02942,3.64477 -0.55087,3.91261 0.31219,0.17468 0.56759,0.58404 0.56759,0.90969 0,0.84326 -1.47011,3.11253 -2.01639,3.11253 -2.69908,-3.45696 -17.98772,-11.36945 -17.12568,-13.00384 z"
       style="opacity:1;fill:#ff0000;fill-opacity:1;fill-rule:evenodd;stroke:none;stroke-width:1.36472;stroke-linecap:round;stroke-linejoin:round" />
    <path
       id="path_3_3"
       d="m 245.88325,188.78821 c -1.26306,-1.27924 -3.86656,-3.33947 -5.78556,-4.57822 l -3.48909,-2.25232 3.13971,-0.14843 c 1.72685,-0.0816 5.10013,0.0374 7.49617,0.26458 l 4.35647,0.41302 -1.38655,2.91042 c -0.76261,1.60072 -1.35001,3.56526 -1.30534,4.36562 0.0447,0.80036 -0.10118,1.43182 -0.32409,1.40324 -0.22289,-0.0286 -1.43867,-1.09865 -2.70172,-2.37791 z"
       style="opacity:1;fill:#bf0000;fill-opacity:1;fill-rule:evenodd;stroke:none;stroke-width:1.93;stroke-linecap:round;stroke-linejoin:round" />
    <path
       sodipodi:nodetypes="sscaccsaaasassccaascacasaccsscsssssscscsccscassaaacasssss"
       id="path_3_0"
       d="m 48.737533,216.31437 c -4.90453,-1.10003 -9.40887,-3.45964 -12.90137,-6.75838 -2.94278,-2.77953 -5.92379,-7.27419 -5.93275,-8.94519 -0.005,-1.01547 3.74751,1.48273 5.72611,1.72725 12.91288,1.5958 24.18362,5.93431 38.99015,-1.83572 7.81176,-4.36713 16.9572,-10.31946 18.55537,-19.40506 0.29329,-3.86322 -2.21832,-5.63681 -7.92236,-8.50474 -5.25331,-2.64131 -9.03074,-3.68045 -13.81464,-4.25897 -6.0517,-0.73184 -12.3616,-0.48645 -18.25625,1.06656 -7.38753,1.94633 -14.5478,5.40739 -20.56834,10.11024 -1.44872,1.13164 -2.65811,3.19704 -3.5587,4.21311 0,0 -1.03158,0.7927 -1.63745,0.78905 -0.92695,-0.006 -2.49047,-1.23733 -2.49047,-1.23733 -5.38673,-4.9653 -9.96439,-12.78694 -8.39949,-14.35185 0.36854,-0.36851 1.13212,0.58041 1.90426,1.66471 1.58939,2.38275 5.40739,0.12373 5.23936,-1.62063 0.46472,-4.94457 7.84704,-8.21474 12.66253,-11.09752 4.01929,-2.40613 8.75879,-3.32625 13.15636,-4.94041 1.4912,-0.54736 3.61257,-1.14569 4.48569,-1.60877 0.87313,-0.46307 4.98594,-1.89754 5.46648,-1.89934 0.48054,-0.003 2.13782,3.15818 3.27856,4.68533 1.31061,1.75457 2.33978,3.82703 4.0931,5.13931 1.56381,0.93249 3.30861,0.64161 4.96416,0.95589 1.39018,0.2639 2.89082,-0.16695 4.17262,0.78073 0.84158,0.6222 1.71698,1.41669 2.62651,1.13128 3.53314,-1.1087 4.46641,-6.00637 5.86285,-9.43599 6.20496,-11.03047 0.32491,7.29448 13.36678,6.00387 -0.82239,11.63407 12.898027,3.27452 29.855897,0.4125 5.72838,-0.96679 9.4119,5.15263 15.01249,5.72812 7.96008,0.81795 17.09383,-3.35566 18.29173,-1.66866 0.547,0.78097 0.59645,1.32913 0.18862,2.09119 -1.12742,2.10658 -0.29869,11.1565 1.02163,11.1565 0.69845,0 2.47171,-5.10384 3.41823,-9.83846 1.26929,-6.34904 1.33414,-6.56571 1.96483,-6.56571 0.39875,0 0.47458,0.8495 0.23622,2.64641 -0.20003,1.50776 -0.12031,3.07764 0.18528,3.64861 0.3981,0.74382 0.3346,1.16962 -0.24627,1.65171 -0.6507,2.27346 1.96858,3.5693 3.26594,4.61407 2.5219,2.0309 5.56261,2.37785 8.51363,1.96141 3.09737,-0.43479 6.66596,-1.14173 7.93025,-1.57096 3.10099,-1.05281 3.84921,-0.9878 3.84921,0.33451 -0.11761,2.2308 4.82013,-1.14488 4.02884,0.37534 -0.199,0.32197 -1.24643,0.71966 -2.32762,0.88373 -3.05033,0.46294 -10.08515,2.36715 -13.73291,3.71727 -2.92653,1.2631 -7.2731,1.87664 -10.81013,3.12524 -0.51125,0.18048 -1.49985,1.77924 -1.49985,0.62931 0,-2.29026 -5.93846,-3.65908 -19.64819,-4.52887 -22.11769,-1.40324 -27.82853,-3.22508 -39.53873,2.89917 -1.95836,1.02419 -3.34058,3.10589 -4.17026,5.15425 -0.61289,1.51316 -0.61471,3.25522 -0.43743,4.87814 0.15128,1.38489 1.26381,1.76659 1.26317,3.98393 0,1.66574 -0.0107,4.05601 -1.23786,5.46353 -1.26519,1.45118 -3.825007,1.00843 -5.406507,2.0321 l -10.52838,6.81477 c -10.55435,6.83157 -15.35343,7.91326 -26.65831,8.20819 -6.12798,0.15986 -9.12521,0.007 -11.85259,-0.60478 z"
       style="opacity:1;fill:#bf0000;fill-opacity:1;fill-rule:evenodd;stroke:none;stroke-width:1.93;stroke-linecap:round;stroke-linejoin:round" />
    <path
       sodipodi:nodetypes="ssssscccssssccssssccsssss"
       id="path_3_2"
       d="m 216.42971,225.92854 c -6.55238,-1.51284 -10.43255,-3.25287 -24.52027,-10.99601 -15.89741,-8.73781 -21.02588,-11.25884 -24.05382,-11.8243 -1.10405,-0.20619 -1.92313,-0.52504 -1.82015,-0.70856 0.10298,-0.18351 1.00632,-2.08079 2.00739,-4.21613 l 1.82018,-3.88247 2.91042,0.31657 c 9.64205,0.81445 16.51115,5.30197 20.82347,6.70719 4.56697,1.43351 5.33503,1.15681 4.9461,-1.782 -0.2694,-2.03573 -0.22749,-2.14593 0.46079,-1.21216 0.41643,0.56497 0.75714,2.01885 0.75714,3.23091 0,2.16498 0.0556,2.23125 3.16454,3.77221 1.74051,0.86268 3.36675,1.36634 3.61384,1.11924 5.41425,0.38909 12.35942,7.44715 16.71397,7.51923 1.0492,0 1.90764,0.23812 1.90764,0.52916 0,0.29104 1.29419,0.52917 2.87597,0.52917 4.62884,0 6.90761,1.4233 4.9199,3.07295 -0.48487,0.4024 -1.03481,0.27699 -1.98437,-0.45262 -1.69968,-1.30596 -2.76815,-1.29083 -3.98746,0.0565 -0.41875,4.71178 3.61139,1.59614 4.26728,6.05446 l 3.03975,-0.10316 c 1.67187,-0.0567 3.03977,-0.007 3.03977,0.11104 0,0.1178 -1.58824,0.70472 -3.52944,1.30429 -4.62497,1.42851 -13.08441,1.84462 -17.37264,0.85453 z"
       style="opacity:1;fill:#bf0000;fill-opacity:1;fill-rule:evenodd;stroke:none;stroke-width:1.93;stroke-linecap:round;stroke-linejoin:round" />
    <ellipse
       ry="3.96875"
       rx="3.175"
       cy="118.99429"
       cx="141.46284"
       id="path1070"
       style="opacity:1;fill:#e6e6e6;fill-opacity:1;fill-rule:evenodd;stroke:none;stroke-width:0.964999;stroke-linecap:round;stroke-linejoin:round" />
    <ellipse
       ry="2.6458333"
       rx="1.984375"
       cy="115.02554"
       cx="74.655571"
       id="path1074"
       style="opacity:1;fill:#e6e6e6;fill-opacity:1;fill-rule:evenodd;stroke:none;stroke-width:0.964999;stroke-linecap:round;stroke-linejoin:round" />
  </g>
</svg>
