<?xml version="1.0" encoding="UTF-8" standalone="no"?>
<svg
   xmlns:dc="http://purl.org/dc/elements/1.1/"
   xmlns:cc="http://creativecommons.org/ns#"
   xmlns:rdf="http://www.w3.org/1999/02/22-rdf-syntax-ns#"
   xmlns:svg="http://www.w3.org/2000/svg"
   xmlns="http://www.w3.org/2000/svg"
   xmlns:sodipodi="http://sodipodi.sourceforge.net/DTD/sodipodi-0.dtd"
   xmlns:inkscape="http://www.inkscape.org/namespaces/inkscape"
   width="210mm"
   height="297mm"
   viewBox="0 0 210 297"
   version="1.1"
   id="svg8"
   inkscape:version="1.0 (4035a4fb49, 2020-05-01)"
   sodipodi:docname="llama.svg">
  <defs
     id="defs2" />
  <sodipodi:namedview
     id="base"
     pagecolor="#ffffff"
     bordercolor="#666666"
     borderopacity="1.0"
     inkscape:pageopacity="0.0"
     inkscape:pageshadow="2"
     inkscape:zoom="0.7"
     inkscape:cx="521.54542"
     inkscape:cy="545.8364"
     inkscape:document-units="mm"
     inkscape:current-layer="layer1"
     inkscape:document-rotation="0"
     showgrid="true"
     inkscape:window-width="1898"
     inkscape:window-height="1020"
     inkscape:window-x="0"
     inkscape:window-y="0"
     inkscape:window-maximized="0">
    <inkscape:grid
       type="xygrid"
       id="grid847" />
  </sodipodi:namedview>
  <metadata
     id="metadata5">
    <rdf:RDF>
      <cc:Work
         rdf:about="">
        <dc:format>image/svg+xml</dc:format>
        <dc:type
           rdf:resource="http://purl.org/dc/dcmitype/StillImage" />
        <dc:title />
      </cc:Work>
    </rdf:RDF>
  </metadata>
  <g
     inkscape:label="Warstwa 1"
     inkscape:groupmode="layer"
     id="layer1">
    <path
       sodipodi:nodetypes="caaaacc"
       id="path863-1"
       d="m 161.925,216.16459 c 0,0 4.1759,7.73821 7.40833,10.58334 2.99087,2.63251 6.60358,5.36393 10.58333,5.55625 2.5683,0.12411 5.30928,-1.1087 7.14376,-2.91042 2.396,-2.35322 3.43081,-5.94543 3.96875,-9.26041 0.85058,-5.24144 -1.32292,-15.875 -1.32292,-15.875 z"
       style="fill:#ffd5d5;stroke:#ffffff;stroke-width:7;stroke-linecap:butt;stroke-linejoin:miter;stroke-miterlimit:4;stroke-dasharray:none;stroke-opacity:1" />
    <path
       sodipodi:nodetypes="cascc"
       id="path913-8"
       d="m 164.60863,124.76993 c 0,0 6.63916,-5.29166 10.58333,-5.29166 2.25382,0 4.92173,0.47221 6.04763,3.02381 2.98521,6.7653 -2.48619,17.46307 -2.64584,15.875 z"
       style="fill:#ff3dff;fill-opacity:1;stroke:#ffffff;stroke-width:7;stroke-linecap:butt;stroke-linejoin:miter;stroke-miterlimit:4;stroke-dasharray:none;stroke-opacity:1" />
    <g
       style="stroke:#ffffff"
       id="g978">
      <path
         style="fill:#ffd5d5;stroke:#ffffff;stroke-width:7;stroke-linecap:butt;stroke-linejoin:miter;stroke-miterlimit:4;stroke-dasharray:none;stroke-opacity:1"
         d="m 97.137591,240.24166 c 0,0 -6.215073,12.74604 -6.085405,19.57917 0.06033,3.17933 2.314896,5.93447 3.175004,8.99583 0.976619,3.47606 0.635213,7.45424 2.242084,10.59736 1.999598,3.91131 3.390559,4.76206 5.959976,5.80681 4.08495,1.66098 9.02983,1.34575 13.2292,0 3.61245,-1.15766 7.2524,-3.39629 9.26047,-6.61458 4.25979,-6.82704 3.96877,-23.8125 3.96877,-23.8125 z"
         id="path861-5"
         sodipodi:nodetypes="caasaaacc" />
      <path
         style="fill:#ffd5d5;stroke:#ffffff;stroke-width:7;stroke-linecap:butt;stroke-linejoin:miter;stroke-miterlimit:4;stroke-dasharray:none;stroke-opacity:1"
         d="m 33.337499,229.65833 c 0,0 -6.564774,8.27319 -7.9375,13.22917 -0.823973,2.9748 -1.367547,6.49308 0,9.26042 0.836193,1.69211 2.68221,2.92417 4.497917,3.43958 4.263278,1.2102 8.989428,-0.0327 13.229167,-1.32291 4.114473,-1.25213 11.377084,-6.08542 11.377084,-6.08542 z"
         id="path859-8"
         sodipodi:nodetypes="caaaacc" />
      <g
         style="stroke:#ffffff"
         id="g970">
        <path
           sodipodi:nodetypes="caacc"
           id="path853-2"
           d="m 48.154165,18.950377 c 0,0 -2.63168,-7.166519 -5.820833,-7.937501 -1.150121,-0.278043 -2.422684,0.674206 -3.174998,1.587501 -2.095107,2.543419 -2.645834,9.525002 -2.645834,9.525002 z"
           style="fill:#ffd5d5;stroke:#ffffff;stroke-width:7;stroke-linecap:butt;stroke-linejoin:miter;stroke-miterlimit:4;stroke-dasharray:none;stroke-opacity:1" />
        <path
           sodipodi:nodetypes="caaacc"
           id="path851-6"
           d="m 95.87913,29.533776 c 0,0 17.94816,-10.283969 25.39997,-5.820833 1.72535,1.03337 1.55793,3.809909 1.58749,5.820834 0.0774,5.261618 -1.22237,10.705646 -3.70416,15.345834 -2.94355,5.503548 -12.7,13.758334 -12.7,13.758334 z"
           style="fill:#ffd5d5;stroke:#ffffff;stroke-width:7;stroke-linecap:butt;stroke-linejoin:miter;stroke-miterlimit:4;stroke-dasharray:none;stroke-opacity:1" />
        <g
           style="fill:#ffffff;stroke:#ffffff"
           id="g1001">
          <path
             style="fill:#ffffff;stroke:#ffffff;stroke-width:7;stroke-linecap:round;stroke-linejoin:round;stroke-miterlimit:4;stroke-dasharray:none;stroke-opacity:1"
             d="m 33.572004,124.26509 c 0.540429,-0.72599 1.799048,-2.0336 1.799048,-2.0336 0,0 -2.788668,-0.62633 -5.642856,-2.35321 -2.365379,-1.43113 -4.775757,-4.31301 -5.681187,-6.19653 -0.76517,-1.59173 0.26458,-4.7625 0.26458,-4.7625 0,0 -1.92932,-2.4171 -2.72732,-5.14605 -0.55489,-1.89759 -0.0162,-3.945953 -0.18309,-5.437283 -0.19072,-1.70385 0.25508,-3.43275 0.29388,-5.15872 0.0491,-2.1846 -0.23524,-4.3645 0.23528,-6.48295 0.51593,-2.32284 1.45569,-6.53112 2.67375,-8.658567 1.028919,-1.797077 2.353338,-3.512262 2.353338,-3.512262 0,0 -1.845738,-4.104934 -2.910418,-6.085419 -1.46101,-2.717726 -3.89766,-4.975636 -4.7625,-7.9375 -0.89026,-3.048908 -0.61748,-6.368439 -0.26458,-9.525001 0.43492,-3.890246 1.2765,-7.819906 2.91041,-11.377084 0.97779,-2.128721 1.90283,-3.978493 3.380499,-5.818446 1.23867,-1.542353 3.022989,-3.077807 4.027838,-4.764885 0.60549,-1.016594 0.79798,-2.293667 1.587499,-3.175 3.362528,-3.75358 7.969776,-6.463971 12.699996,-8.202084 3.172851,-1.165862 6.708493,-0.840476 10.054165,-1.322916 4.506313,-0.649802 8.944503,-1.933994 13.493753,-2.116667 4.68383,-0.188077 9.52618,-0.265628 14.02292,1.058333 3.36931,0.992014 6.53984,2.805649 9.26042,5.027084 1.27999,1.045153 2.80904,2.370133 3.79654,3.710707 0.73325,0.995418 0.40134,1.470269 1.23054,2.374709 0.6743,0.735482 1.40448,0.84545 2.11667,1.587501 1.62103,1.689016 1.30198,4.182312 2.396741,6.269069 1.48909,2.838425 4.77347,5.374566 6.06993,8.283014 1.29466,2.904408 1.32504,6.409447 3.175,8.995834 1.24205,1.736482 3.77169,2.241889 5.02708,3.968751 1.49317,2.053928 1.6817,4.794573 2.64583,7.14375 1.139,2.775267 2.64958,5.393647 3.70417,8.202083 1.06907,2.847007 1.76213,5.821365 2.64583,8.73125 1.23228,4.057686 3.11042,7.971926 3.70417,12.170836 0.85213,6.0261 1.17659,12.343293 -0.26458,18.256253 -0.37534,1.53998 -0.80356,3.57625 -1.78338,5.41335 -1.3364,2.50567 -4.30204,5.69914 -4.30204,5.69914 0,0 4.49609,-2.67495 6.35,-2.91041 3.58179,-0.45492 7.18535,1.25471 10.79153,1.62976 4.79175,0.49836 9.58808,-0.14421 14.34397,0.48691 4.88737,0.64857 10.1004,0.52696 14.55208,2.64583 7.3419,3.49453 13.53196,9.45422 18.52083,15.875 5.13036,6.6029 8.64472,14.5003 11.11251,22.48959 2.23438,7.23364 3.64708,14.93346 3.17499,22.48959 -0.28224,4.51753 -0.55102,9.81201 -1.86716,14.1399 -0.54393,1.78864 -2.10159,4.9101 -2.10159,4.9101 0,0 1.25906,3.17644 0.52917,4.49791 -0.99181,1.79565 -3.61864,1.97226 -5.55625,2.64583 -5.98169,2.07944 -12.90003,1.31592 -18.52083,4.23334 -2.10626,1.09323 -3.01355,4.09795 -5.29167,4.7625 -2.57501,0.75116 -5.63702,0.0565 -7.9375,-1.32292 -1.24058,-0.74385 -2.04737,-2.12269 -2.64583,-3.43958 -0.93028,-2.04706 -1.32292,-6.61458 -1.32292,-6.61458 0,0 -1.12842,1.58958 -2.47949,2.49318 -1.06074,0.70942 -2.28301,1.47557 -2.28301,1.47557 0,0 -1.32492,7.92452 -1.85208,11.90625 -0.74526,5.62899 0.46891,12.13794 -1.8521,16.93333 -0.65284,1.34882 -1.40266,2.86273 -2.83988,4.14025 -1.55341,1.38081 -2.7164,1.94517 -2.7164,1.94517 0,0 0.0682,2.16648 -0.26459,3.17499 -0.68257,2.06854 -1.71193,4.22964 -3.4396,5.55626 -3.87268,2.97369 -9.1416,4.34743 -14.02293,4.23333 -7.66879,-0.17927 -14.03363,-8.03773 -21.69584,-7.67291 -6.897311,0.3284 -12.137611,10.59869 -18.785411,8.73124 -1.5307,-0.42999 -2.06658,-2.48808 -2.64584,-3.96875 -1.12616,-2.87867 -1.06878,-6.70151 -1.45735,-9.15811 -0.63849,-4.03665 -1.71765,-5.39397 -1.71765,-5.39397 h -1.32291 c 0,0 -0.59399,1.85102 -2.38148,3.28102 -1.13265,0.90611 -2.84873,0.79732 -3.70394,1.48148 -2.20486,1.76389 -3.14844,4.42912 -5.55625,5.29166 -3.41324,1.22272 -7.533432,0.67576 -10.847923,-0.79374 -4.790273,-2.1238 -6.945264,-8.05216 -11.377085,-10.84792 -5.028769,-3.17233 -13.186914,-1.53034 -16.668742,-6.35 -2.32638,-3.22025 -0.53546,-7.93359 -0.52917,-11.90625 0.003,-1.85418 0.26459,-5.55625 0.26459,-5.55625 0,0 -2.0027,-2.21519 -3.31562,-4.80997 -0.94508,-1.86779 -1.80692,-4.46143 -1.97605,-6.03795 -0.20487,-1.90974 -0.0367,-4.5543 0.7561,-6.81315 0.88534,-2.52247 1.88973,-4.56393 1.88973,-4.56393 0,0 -1.14785,-2.18548 -1.65838,-4.91851 -0.5189,-2.77784 -0.39689,-6.12134 0.0709,-8.31066 0.47929,-2.24321 2.00555,-6.11831 3.65088,-8.67462 2.412219,-3.74781 5.080367,-5.87746 5.080367,-5.87746 0,0 -1.358269,-1.82938 -1.587499,-2.91041 -0.899399,-4.2416 0.978049,-8.62943 1.058329,-12.96459 0.0736,-3.97199 -1.279009,-8.00499 -0.529159,-11.90626 0.712669,-3.70785 0.900359,-6.94981 2.909658,-10.2885 0.72851,-1.63729 1.647759,-2.92179 2.646589,-4.26358 z"
             id="path944-5"
             sodipodi:nodetypes="acsscssssscaaasssaaaaassssssaaaaaasscsssaaasscaaaaaacscasscaaaaaasccssaaaaacssscssscaascaa" />
        </g>
      </g>
    </g>
    <path
       style="fill:#ffd5d5;stroke:#000000;stroke-width:3;stroke-linecap:butt;stroke-linejoin:miter;stroke-miterlimit:4;stroke-dasharray:none;stroke-opacity:1"
       d="m 161.92497,216.16448 c 0,0 4.1759,7.73821 7.40833,10.58334 2.99087,2.63251 6.60358,5.36393 10.58333,5.55625 2.5683,0.12411 5.30928,-1.1087 7.14376,-2.91042 2.396,-2.35322 3.4308,-5.94543 3.96875,-9.26041 0.85057,-5.24144 -1.32292,-15.875 -1.32292,-15.875 z"
       id="path863"
       sodipodi:nodetypes="caaaacc" />
    <path
       style="fill:#ff3dff;stroke:#000000;stroke-width:3;stroke-linecap:butt;stroke-linejoin:miter;stroke-opacity:1;stroke-miterlimit:4;stroke-dasharray:none;fill-opacity:1"
       d="m 164.5708,124.88323 c 0,0 6.63916,-5.29166 10.58333,-5.29166 2.25382,0 4.92173,0.47221 6.04763,3.02381 2.98521,6.7653 -2.48619,17.46307 -2.64584,15.875 z"
       id="path913"
       sodipodi:nodetypes="cascc" />
    <path
       style="fill:#58ffff;stroke:none;stroke-width:0.264583px;stroke-linecap:butt;stroke-linejoin:miter;stroke-opacity:1;fill-opacity:1"
       d="m 166.68746,219.0749 c -3.00125,0.69424 -6.69915,-0.0637 -8.99583,-2.11667 -1.95499,-1.74756 -2.02815,-4.85991 -2.64582,-7.40833 -0.62875,-2.59414 -2.81664,-5.9292 -1.05834,-7.9375 8.71438,-9.95342 28.4341,-6.95499 39.6875,0 1.67756,1.03679 3.26946,3.42078 2.64583,5.29167 -0.74835,2.24506 -4.12757,2.36188 -6.34999,3.175 -5.62479,2.05794 -12.1004,1.56478 -17.46251,4.23334 -2.24438,1.11696 -3.37837,4.19751 -5.82084,4.76249 z"
       id="path911"
       sodipodi:nodetypes="aaaaaaaaa" />
    <path
       style="fill:#ffff4c;stroke:none;stroke-width:0.264583px;stroke-linecap:butt;stroke-linejoin:miter;stroke-opacity:1;fill-opacity:1"
       d="m 153.98747,201.6124 c 4.24703,3.27755 10.52862,2.20335 15.875,2.64583 7.91045,0.65469 17.37326,4.64115 23.8125,1e-5 4.52503,-3.26146 4.82062,-10.31702 5.29167,-15.875 0.97963,-11.55873 -0.57017,-23.80002 -5.29167,-34.39584 -5.10191,-11.44951 -12.96653,-22.82039 -23.8125,-29.10416 -9.28376,-5.37867 -21.05724,-4.40671 -31.75,-5.29167 -5.27364,-0.43646 -11.37364,-2.782 -15.875,0 -1.67756,1.03679 -2.60419,3.32002 -2.64583,5.29167 -0.59175,28.02238 12.20647,59.60501 34.39583,76.72916 z"
       id="path909"
       sodipodi:nodetypes="aaaaaaaaaa" />
    <path
       style="fill:#ffd5d5;stroke:#000000;stroke-width:3;stroke-linecap:butt;stroke-linejoin:miter;stroke-opacity:1;stroke-miterlimit:4;stroke-dasharray:none"
       d="m 95.779164,29.633323 c 0,0 17.948166,-10.283969 25.399976,-5.820833 1.72535,1.03337 1.55793,3.809909 1.58749,5.820834 0.0774,5.261617 -1.22237,10.705645 -3.70416,15.345833 -2.94355,5.503549 -12.7,13.758333 -12.7,13.758333 z"
       id="path851"
       sodipodi:nodetypes="caaacc" />
    <path
       style="fill:#ffd5d5;stroke:#000000;stroke-width:3;stroke-linecap:butt;stroke-linejoin:miter;stroke-opacity:1;stroke-miterlimit:4;stroke-dasharray:none"
       d="m 48.154163,19.04999 c 0,0 -2.63168,-7.166519 -5.820834,-7.9375 -1.150121,-0.278043 -2.422684,0.674205 -3.174998,1.5875 -2.095107,2.543419 -2.645834,9.525001 -2.645834,9.525001 z"
       id="path853"
       sodipodi:nodetypes="caacc" />
    <path
       style="fill:#ffd5d5;stroke:#000000;stroke-width:3;stroke-linecap:butt;stroke-linejoin:miter;stroke-opacity:1;stroke-miterlimit:4;stroke-dasharray:none"
       d="m 33.60208,229.39365 c 0,0 -6.564774,8.27319 -7.9375,13.22917 -0.823972,2.9748 -1.367546,6.49308 0,9.26042 0.836193,1.69211 2.68221,2.92417 4.497917,3.43958 4.263278,1.2102 8.989428,-0.0327 13.229167,-1.32292 4.114473,-1.25212 11.377083,-6.08541 11.377083,-6.08541 z"
       id="path859"
       sodipodi:nodetypes="caaaacc" />
    <path
       style="fill:#ffff5e;stroke:none;stroke-width:0.264583px;stroke-linecap:butt;stroke-linejoin:miter;stroke-opacity:1;fill-opacity:1"
       d="m 26.987497,212.19573 c -3.237672,1.65546 -2.201533,6.97423 -2.645834,10.58334 -0.431035,3.50135 -1.942008,7.6382 1e-6,10.58333 3.697477,5.60737 12.958964,4.17193 18.520833,7.9375 4.131254,2.797 5.974068,8.67412 10.583333,10.58334 3.259242,1.35002 7.472982,1.66461 10.583334,0 2.803633,-1.50046 5.680196,-4.78143 5.291666,-7.9375 -1.60195,-13.01281 -17.989924,-19.50326 -29.104166,-26.45834 -4.026083,-2.51945 -9.000465,-7.45385 -13.229167,-5.29167 z"
       id="path903"
       sodipodi:nodetypes="aaaaaaaaa" />
    <path
       style="fill:#ffd5d5;stroke:#000000;stroke-width:3;stroke-linecap:butt;stroke-linejoin:miter;stroke-opacity:1;stroke-miterlimit:4;stroke-dasharray:none"
       d="m 97.102068,239.97698 c 0,0 -6.215073,12.74604 -6.085405,19.57917 0.06033,3.17933 2.314896,5.93447 3.175004,8.99583 0.976619,3.47606 0.635213,7.45424 2.242084,10.59736 1.999598,3.91131 3.390562,4.76206 5.959969,5.80681 4.08495,1.66098 9.02981,1.34575 13.22917,0 3.61242,-1.15766 7.25234,-3.39629 9.26041,-6.61458 4.25977,-6.82704 3.96875,-23.8125 3.96875,-23.8125 z"
       id="path861"
       sodipodi:nodetypes="caasaaacc" />
    <path
       style="fill:#ff31ff;stroke:none;stroke-width:0.265;stroke-linecap:butt;stroke-linejoin:miter;stroke-opacity:1;fill-opacity:1;stroke-miterlimit:4;stroke-dasharray:none"
       d="m 24.341663,193.6749 c -1.977954,0.26488 -3.538312,2.36266 -4.233333,4.23333 -1.663202,4.47656 -1.168055,10.06269 1.058334,14.2875 2.632757,4.99595 8.681015,7.23592 13.229167,10.58334 6.343595,4.66885 13.191399,8.62093 19.579166,13.22916 4.692375,3.38516 7.981955,10.25003 13.758334,10.58334 3.080421,0.17775 7.109318,-1.79018 7.937499,-4.7625 2.732039,-9.80522 -7.207034,-19.67495 -14.2875,-26.9875 C 51.491049,204.62504 38.436761,191.78731 24.341663,193.6749 Z"
       id="path899"
       sodipodi:nodetypes="aaaaaaaaa" />
    <path
       style="fill:#ff31ff;stroke:none;stroke-width:0.264583px;stroke-linecap:butt;stroke-linejoin:miter;stroke-opacity:1;fill-opacity:1"
       d="m 116.41663,123.29573 c 2.20592,-3.71926 8.48095,-3.59372 12.70001,-2.64583 8.84595,1.98741 18.06706,9.46249 21.69583,16.40418 3.92403,7.50651 15.04815,22.83761 17.59655,30.95732 1.61405,5.14269 -2.31959,13.53937 -1.19238,18.78434 1.30192,6.05793 -3.06678,9.91995 -6.35,13.75833 -4.54734,5.31625 -10.87666,14.00124 -17.4625,11.64167 -29.154,-10.44528 -42.78555,-62.26392 -26.98751,-88.90001 z"
       id="path907"
       sodipodi:nodetypes="aasssaaa" />
    <path
       style="fill:#90ffff;stroke:none;stroke-width:0.264583px;stroke-linecap:butt;stroke-linejoin:miter;stroke-opacity:1;fill-opacity:1"
       d="m 66.674996,228.07073 c -10.838997,4.82728 -16.842785,-16.86068 -26.458333,-23.8125 -5.762241,-4.16596 -15.262681,-4.26327 -18.520833,-10.58333 -3.249116,-6.30253 -1.328676,-14.96922 2.116667,-21.16666 2.81137,-5.05706 8.358145,-8.50593 13.758333,-10.58334 31.376571,-12.07029 70.51877,-23.06391 100.54164,-7.9375 7.43044,3.74367 11.92981,12.94851 13.22917,21.16667 0.56788,3.59173 -3.26646,7.00033 -2.64584,10.58333 0.54272,3.13324 5.09408,4.76375 5.29167,7.9375 0.24508,3.93656 -1.86477,8.63068 -5.29167,10.58334 -10.75522,6.12837 -24.95568,-5.3218 -37.04166,-2.64584 -8.86547,1.96291 -14.734452,13.03191 -23.812476,13.22917 -7.886489,0.17137 -14.456435,-14.73048 -21.166667,-10.58333 -6.752038,4.17299 7.250903,20.58321 -1e-6,23.81249 z"
       id="path893"
       sodipodi:nodetypes="aaaaaaaaaaaaaa" />
    <path
       style="fill:#ffff5e;stroke:none;stroke-width:0.264583px;stroke-linecap:butt;stroke-linejoin:miter;stroke-opacity:1;fill-opacity:1"
       d="m 29.63333,167.21657 c -4.403162,-2.95607 -0.881846,-10.57452 -1.058333,-15.875 -0.170226,-5.11244 -1.340271,-10.40926 -1e-6,-15.34583 1.553581,-5.72225 3.905462,-12.30514 8.995834,-15.34584 8.334121,-4.97834 19.460435,-2.17181 29.104167,-1.05833 9.98935,1.15338 19.059212,8.40251 29.104167,7.9375 7.527246,-0.34846 14.014646,-10.31033 21.166636,-7.9375 13.93175,4.62215 29.75965,23.62194 23.8125,37.04167 -2.17355,4.90461 -11.10492,0.19106 -15.875,2.64583 -4.43608,2.28289 -5.89871,8.86731 -10.58333,10.58333 -9.97204,3.65284 -21.15433,-3.36493 -31.749973,-2.64583 -8.112465,0.55058 -15.701316,5.8608 -23.8125,5.29167 -7.516856,-0.52742 -13.632621,-7.79803 -21.166667,-7.9375 -2.788475,-0.0516 -5.62197,4.20036 -7.9375,2.64583 z"
       id="path891"
       sodipodi:nodetypes="aaaaaaaaaaaaaa" />
    <path
       style="fill:#ff77ff;stroke:none;stroke-width:0.264583px;stroke-linecap:butt;stroke-linejoin:miter;stroke-opacity:1;fill-opacity:1"
       d="m 48.154163,109.00824 c -7.890105,-0.86611 -18.19984,-5.61266 -23.8125,0 -1.247256,1.24726 -0.788833,3.71399 1e-6,5.29166 1.972088,3.94418 6.32919,6.7765 10.583333,7.9375 7.704581,2.10266 15.839616,-3.10934 23.8125,-2.64583 11.746772,0.68291 22.633128,8.24046 34.395833,7.9375 6.418503,-0.16532 18.78047,1.12373 18.52081,-5.29167 -0.5456,-13.48012 -26.487199,-5.15111 -39.687476,-7.9375 -7.955813,-1.67936 -15.729926,-4.40442 -23.812501,-5.29166 z"
       id="path889"
       sodipodi:nodetypes="aaaaaaaaa" />
    <path
       style="fill:#90ffff;stroke:none;stroke-width:0.264583px;stroke-linecap:butt;stroke-linejoin:miter;stroke-opacity:1;fill-opacity:1"
       d="m 64.029163,69.320823 c -12.32425,1.917829 -27.641694,-2.906244 -37.041666,5.291666 -4.838933,4.220133 -4.928609,12.110449 -5.291667,18.52079 -0.303346,5.35605 -1.447508,12.407381 2.645834,15.874961 6.056471,5.1306 15.959134,-1.15263 23.8125,0 9.110171,1.33709 17.638889,5.29167 26.458333,7.9375 8.819443,2.64583 17.253047,7.72354 26.458303,7.9375 7.27074,0.169 16.02409,-0.14909 21.16667,-5.29167 5.14258,-5.14258 5.29167,-13.89397 5.29167,-21.166661 0,-7.272658 -2.81278,-14.32939 -5.29167,-21.166585 -2.0705,-5.710787 -2.54002,-13.61719 -7.9375,-16.404167 -15.098934,-7.796296 -33.47995,5.853769 -50.270807,8.466666 z"
       id="path887"
       sodipodi:nodetypes="aaaaaaaaaaaa" />
    <path
       style="fill:#ff77ff;stroke:none;stroke-width:0.264583px;stroke-linecap:butt;stroke-linejoin:miter;stroke-opacity:1;fill-opacity:1"
       d="m 29.63333,32.279156 c -3.230017,-4.632262 5.748477,-10.311114 10.583333,-13.229166 3.998349,-2.413182 9.152344,-1.874409 13.758334,-2.645833 4.920497,-0.824099 9.827838,-2.161607 14.816667,-2.116666 5.538499,0.04989 11.672396,-0.233023 16.404166,2.645833 5.063282,3.080551 14.034086,9.468914 10.583334,14.2875 -2.695748,3.764283 -8.624676,-3.747998 -13.229167,-4.233334 -8.814601,-0.929102 -17.605905,2.204314 -26.458333,2.645834 -6.165947,0.307531 -12.42694,-0.988903 -18.520834,0 -2.752941,0.446741 -6.342308,4.933544 -7.9375,2.645832 z"
       id="path881"
       sodipodi:nodetypes="aaaaaaaaaa" />
    <path
       style="fill:#ffff5e;stroke:none;stroke-width:0.264583px;stroke-linecap:butt;stroke-linejoin:miter;stroke-opacity:1;fill-opacity:1"
       d="m 53.44583,66.674989 c -8.540177,-1.58572 -15.470139,13.002865 -23.8125,10.583334 -3.05404,-0.885762 -3.695591,-5.187175 -5.291666,-7.937499 -1.979688,-3.411357 -4.65988,-6.690088 -5.291667,-10.583334 -0.998943,-6.155762 0.259309,-12.759253 2.645833,-18.520833 1.687528,-4.074052 4.206844,-8.232193 7.9375,-10.583333 3.804537,-2.397702 8.754001,-2.202705 13.229167,-2.645834 6.143566,-0.608333 12.362754,0.437641 18.520833,0 6.2206,-0.442084 12.284679,-2.686679 18.520834,-2.645833 5.712809,0.03742 12.320744,-0.724862 16.933324,2.645833 2.229148,1.628976 2.301358,5.030342 3.704152,7.408334 1.74013,2.949836 4.29418,5.400894 5.82083,8.466666 1.24319,2.496544 1.17959,5.565075 2.64583,7.9375 1.31144,2.121962 3.98023,3.169705 5.29167,5.291667 1.46624,2.372425 3.01602,5.173224 2.64583,7.9375 -0.42208,3.151758 -2.48803,6.437041 -5.29166,7.9375 -8.55347,4.57768 -19.402753,0 -29.104143,0 -7.9375,0 -16.479206,3.03755 -23.8125,0 -2.304632,-0.95461 -2.839071,-4.836276 -5.291667,-5.291668 z"
       id="path885"
       sodipodi:nodetypes="aaaaaaaaaaaaaaaaaaa" />
    <path
       style="fill:#ff77ff;stroke:none;stroke-width:0.264583px;stroke-linecap:butt;stroke-linejoin:miter;stroke-opacity:1;fill-opacity:1"
       d="m 122.23747,238.65407 c 6.17361,2.64583 12.4723,10.85798 18.52083,7.9375 9.0554,-4.37232 6.60277,-19.13743 7.9375,-29.10417 0.70238,-5.24485 4.05886,-12.4798 0,-15.875 -7.87489,-6.58729 -30.06077,-5.58381 -40.67644,-0.97335 -11.064172,4.80526 -10.609975,13.34609 -21.23603,12.08586 -7.843238,-0.93019 -15.241178,-14.07682 -21.695833,-9.525 -6.069739,4.28038 -0.375507,15.06189 1.5875,22.22499 1.563666,5.70588 2.441498,13.68499 7.9375,15.875 9.589611,3.8212 18.785338,-10.87296 29.104143,-10.58333 6.71404,0.18845 12.34722,5.29167 18.52083,7.9375 z"
       id="path901"
       sodipodi:nodetypes="aaasssaaaaa" />
    <path
       style="fill:#ffff5e;stroke:none;stroke-width:0.264583px;stroke-linecap:butt;stroke-linejoin:miter;stroke-opacity:1;fill-opacity:1"
       d="m 76.729162,234.42073 c -1.722784,2.0081 0.615709,8.89543 1.5875,13.22917 0.97638,4.3542 0.141079,10.92073 4.233335,12.70001 6.225153,2.70663 11.742439,-8.10359 18.520803,-8.46668 8.35488,-0.44753 15.44925,8.18328 23.8125,7.93751 4.74737,-0.13951 9.97092,-1.83613 13.22917,-5.29167 1.91331,-2.02916 3.55095,-5.2995 2.64583,-7.9375 -3.50877,-10.22644 -16.10238,-16.08561 -26.98749,-17.99167 -6.49527,-1.13736 -16.396495,3.17501 -23.293119,4.15878 -5.235754,0.74686 -10.488921,-2.13739 -13.748529,1.66205 z"
       id="path905"
       sodipodi:nodetypes="saaaaaasss" />
    <g
       id="g942"
       transform="translate(-4.7625002,-15.345837)">
      <g
         id="g930">
        <g
           id="g923">
          <path
             sodipodi:nodetypes="caaacaccc"
             id="path857"
             d="m 63.499999,107.95 c 0,0 13.952761,8.6108 21.166667,6.87917 5.33635,-1.28094 10.762598,-6.2246 11.641667,-11.64167 0.94768,-5.839869 -2.668684,-13.183951 -7.9375,-15.875 -10.665648,-5.447481 -35.454166,5.820833 -35.454166,5.820833 0,0 -13.693067,-8.617157 -19.579167,-5.291666 -2.236066,1.263318 -2.665008,4.899292 -2.116666,7.408333 2.012283,8.44385 8.350544,5.63836 8.781908,5.73467 8.458856,2.24912 23.497257,6.96533 23.497257,6.96533 z"
             style="fill:#ffffff;stroke:#000000;stroke-width:1;stroke-linecap:butt;stroke-linejoin:miter;stroke-opacity:1;stroke-miterlimit:4;stroke-dasharray:none" />
          <ellipse
             ry="4.6302085"
             rx="3.3072915"
             cy="92.207291"
             cx="36.115627"
             id="path879"
             style="fill:#000000;fill-opacity:1;stroke:#000000;stroke-width:0.264999;stroke-linecap:round;stroke-linejoin:round;stroke-miterlimit:4;stroke-dasharray:none;stroke-opacity:1" />
          <circle
             r="5.953125"
             cy="99.880211"
             cx="77.390625"
             id="path877"
             style="fill:#000000;fill-opacity:1;stroke:#000000;stroke-width:0.265;stroke-linecap:round;stroke-linejoin:round;stroke-miterlimit:4;stroke-dasharray:none;stroke-opacity:1" />
        </g>
        <path
           style="fill:#ffffff;stroke:#000000;stroke-width:1;stroke-linecap:butt;stroke-linejoin:miter;stroke-opacity:1;stroke-miterlimit:4;stroke-dasharray:none"
           d="m 48.154166,118.00417 c 8.017985,2.11465 17.403665,-5.07597 21.695833,-12.17084 3.196876,-5.28437 3.798336,-13.280876 0.529168,-18.52083 -3.384463,-5.424753 -11.094909,-7.357572 -17.4625,-7.9375 -4.345635,-0.395779 -9.342941,0.387288 -12.7,3.175 -3.582611,2.975011 -6.086291,8.050772 -5.820834,12.7 0.505252,8.84902 5.18796,20.49383 13.758333,22.75417 z"
           id="path849"
           sodipodi:nodetypes="aaaaaaa" />
      </g>
      <g
         id="g918">
        <path
           style="fill:none;stroke:#000000;stroke-width:2;stroke-linecap:round;stroke-linejoin:round;stroke-miterlimit:4;stroke-dasharray:none;stroke-opacity:1"
           d="m 38.364583,88.635416 c -1.163949,1.863878 0.890474,4.264153 2.645833,6.614583 0,0 1.122159,-1.958856 1.984376,-2.645832 1.698369,-1.353186 5.953125,-2.645834 5.953125,-2.645834"
           id="path867"
           sodipodi:nodetypes="ccac" />
        <path
           style="fill:none;stroke:#000000;stroke-width:2;stroke-linecap:round;stroke-linejoin:round;stroke-miterlimit:4;stroke-dasharray:none;stroke-opacity:1"
           d="m 41.010416,95.249999 v 3.96875 c 0,0 3.537434,5.524341 6.425596,5.953131 2.494274,0.37031 6.803571,-3.3073 6.803571,-3.3073"
           id="path869"
           sodipodi:nodetypes="ccac" />
        <path
           style="fill:none;stroke:#000000;stroke-width:2;stroke-linecap:round;stroke-linejoin:round;stroke-miterlimit:4;stroke-dasharray:none;stroke-opacity:1"
           d="m 36.512499,102.39375 c 0,0 0.205002,1.52921 0.793751,1.5875 2.001356,0.19818 3.704167,-4.7625 3.704167,-4.7625"
           id="path875"
           sodipodi:nodetypes="cac" />
      </g>
    </g>
    <path
       style="fill:none;stroke:#000000;stroke-width:3;stroke-linecap:round;stroke-linejoin:round;stroke-miterlimit:4;stroke-dasharray:none;stroke-opacity:1"
       d="m 33.602083,124.35417 c 0.540425,-0.72599 1.799048,-2.0336 1.799048,-2.0336 0,0 -2.788666,-0.62633 -5.642861,-2.35321 -2.365374,-1.43113 -4.775754,-4.31301 -5.681187,-6.19653 -0.765169,-1.59173 0.264584,-4.7625 0.264584,-4.7625 0,0 -1.929321,-2.4171 -2.727322,-5.14605 -0.554893,-1.89759 -0.01616,-3.945952 -0.183095,-5.43728 -0.190721,-1.703848 0.255085,-3.432749 0.293883,-5.158716 0.04911,-2.184602 -0.235244,-4.364503 0.235284,-6.482951 0.515925,-2.322841 1.455682,-6.531118 2.67375,-8.658569 C 25.663082,76.327685 26.9875,74.6125 26.9875,74.6125 c 0,0 -1.845735,-4.104932 -2.910417,-6.085417 -1.461012,-2.717726 -3.897656,-4.975637 -4.7625,-7.9375 -0.89026,-3.048908 -0.617482,-6.368441 -0.264583,-9.525 0.434924,-3.890246 1.276504,-7.819907 2.910417,-11.377083 0.977783,-2.128722 1.902823,-3.978494 3.380495,-5.818447 1.238669,-1.542354 3.022994,-3.077808 4.027838,-4.764886 0.605495,-1.016594 0.797982,-2.293667 1.5875,-3.175 3.362537,-3.75358 7.96978,-6.463971 12.7,-8.202084 3.172858,-1.165862 6.708496,-0.840476 10.054167,-1.322916 4.506309,-0.649802 8.944498,-1.933994 13.49375,-2.116667 4.683824,-0.188077 9.526172,-0.265628 14.022916,1.058333 3.369307,0.992014 6.539839,2.805649 9.260417,5.027084 1.279993,1.045153 2.80904,2.370133 3.796539,3.710707 0.733249,0.995418 0.401339,1.470269 1.230544,2.374709 0.674302,0.735482 1.404482,0.84545 2.116664,1.587501 1.62103,1.689016 1.301989,4.182312 2.396743,6.26907 1.48909,2.838425 4.77347,5.374566 6.06993,8.283013 1.29466,2.904409 1.32504,6.409447 3.175,8.995833 1.24205,1.736482 3.77169,2.241891 5.02708,3.96875 1.49317,2.053929 1.6817,4.794574 2.64583,7.14375 1.139,2.775269 2.64958,5.39365 3.70417,8.202084 1.06907,2.847006 1.76213,5.821365 2.64583,8.731249 1.23228,4.057689 3.11042,7.971929 3.70417,12.170834 0.85213,6.026107 1.17659,12.343293 -0.26458,18.256253 -0.37534,1.53998 -0.80356,3.57625 -1.78338,5.41335 -1.3364,2.50567 -4.30204,5.69914 -4.30204,5.69914 0,0 4.49609,-2.67495 6.35,-2.91041 3.58179,-0.45492 7.18535,1.25471 10.79151,1.62976 4.79173,0.49836 9.58803,-0.14421 14.34391,0.48691 4.88737,0.64857 10.1004,0.52696 14.55208,2.64583 7.3419,3.49453 13.53196,9.45422 18.52083,15.875 5.13036,6.60289 8.64472,14.50029 11.11251,22.48958 2.23438,7.23364 3.64708,14.93346 3.17499,22.48959 -0.28224,4.51753 -0.55102,9.81201 -1.86716,14.1399 -0.54393,1.78864 -2.10159,4.9101 -2.10159,4.9101 0,0 1.25906,3.17644 0.52917,4.49791 -0.99181,1.79565 -3.61864,1.97226 -5.55625,2.64583 -5.98169,2.07944 -12.90003,1.31592 -18.52083,4.23334 -2.10626,1.09323 -3.01355,4.09795 -5.29167,4.7625 -2.57501,0.75116 -5.63702,0.0565 -7.9375,-1.32292 -1.24058,-0.74385 -2.04737,-2.12269 -2.64583,-3.43958 -0.93028,-2.04706 -1.32292,-6.61458 -1.32292,-6.61458 0,0 -1.12842,1.58958 -2.47949,2.49318 -1.06074,0.70942 -2.28301,1.47557 -2.28301,1.47557 0,0 -1.32492,7.92452 -1.85208,11.90625 -0.74525,5.62899 0.46891,12.13794 -1.85209,16.93333 -0.65283,1.34882 -1.40265,2.86273 -2.83986,4.14025 -1.5534,1.38081 -2.71638,1.94517 -2.71638,1.94517 0,0 0.0682,2.16648 -0.26459,3.17499 -0.68257,2.06854 -1.71192,4.22964 -3.43958,5.55626 -3.87267,2.97369 -9.14159,4.34743 -14.02292,4.23333 -7.66879,-0.17927 -14.03363,-8.03773 -21.69584,-7.67291 -6.897305,0.3284 -12.137604,10.59869 -18.78541,8.73124 -1.530699,-0.42999 -2.066578,-2.48808 -2.645833,-3.96875 -1.126165,-2.87867 -1.068787,-6.70151 -1.457357,-9.15811 -0.638493,-4.03665 -1.717643,-5.39397 -1.717643,-5.39397 H 75.40625 c 0,0 -0.593985,1.85102 -2.381479,3.28102 -1.132644,0.90611 -2.84873,0.79732 -3.703937,1.48148 -2.204861,1.76389 -3.148445,4.42912 -5.556251,5.29166 -3.413241,1.22272 -7.533431,0.67576 -10.847917,-0.79374 -4.790272,-2.1238 -6.945266,-8.05216 -11.377082,-10.84792 -5.028767,-3.17233 -13.186925,-1.53034 -16.668751,-6.35 -2.326382,-3.22025 -0.535459,-7.93359 -0.529166,-11.90625 0.0029,-1.85418 0.264583,-5.55625 0.264583,-5.55625 0,0 -2.002701,-2.21519 -3.31562,-4.80997 -0.945072,-1.86779 -1.806921,-4.46143 -1.976047,-6.03795 -0.204873,-1.90974 -0.0367,-4.5543 0.756105,-6.81315 0.885336,-2.52247 1.889728,-4.56393 1.889728,-4.56393 0,0 -1.147855,-2.18548 -1.658382,-4.91851 -0.518897,-2.77784 -0.396889,-6.12134 0.07088,-8.31066 0.479285,-2.24321 2.005547,-6.11831 3.65088,-8.67462 2.412217,-3.74781 5.08037,-5.87746 5.08037,-5.87746 0,0 -1.358275,-1.82938 -1.587501,-2.91041 -0.899399,-4.2416 0.978045,-8.62943 1.058334,-12.96459 0.07356,-3.97199 -1.27901,-8.00499 -0.529167,-11.90625 0.712669,-3.70785 0.90036,-6.94981 2.909658,-10.2885 0.728516,-1.63729 1.647766,-2.92179 2.646592,-4.26358 z"
       id="path944"
       sodipodi:nodetypes="acsscssssscaaasssaaaaassssssaaaaaasscsssaaasscaaaaaacscasscaaaaaasccssaaaaacssscssscaascaa" />
  </g>
</svg>
