<?xml version="1.0" encoding="UTF-8" standalone="no"?>
<svg
   xmlns:dc="http://purl.org/dc/elements/1.1/"
   xmlns:cc="http://creativecommons.org/ns#"
   xmlns:rdf="http://www.w3.org/1999/02/22-rdf-syntax-ns#"
   xmlns:svg="http://www.w3.org/2000/svg"
   xmlns="http://www.w3.org/2000/svg"
   xmlns:sodipodi="http://sodipodi.sourceforge.net/DTD/sodipodi-0.dtd"
   xmlns:inkscape="http://www.inkscape.org/namespaces/inkscape"
   sodipodi:docname="rgbllama.svg"
   inkscape:version="1.0 (4035a4fb49, 2020-05-01)"
   id="svg8"
   version="1.1"
   viewBox="0 0 210 297"
   height="297mm"
   width="210mm">
  <defs
     id="defs2" />
  <sodipodi:namedview
     inkscape:window-maximized="0"
     inkscape:window-y="0"
     inkscape:window-x="0"
     inkscape:window-height="1020"
     inkscape:window-width="1898"
     showgrid="true"
     inkscape:document-rotation="0"
     inkscape:current-layer="layer1"
     inkscape:document-units="mm"
     inkscape:cy="509.45975"
     inkscape:cx="243.60843"
     inkscape:zoom="0.49497475"
     inkscape:pageshadow="2"
     inkscape:pageopacity="0.0"
     borderopacity="1.0"
     bordercolor="#666666"
     pagecolor="#ffffff"
     id="base">
    <inkscape:grid
       id="grid847"
       type="xygrid" />
  </sodipodi:namedview>
  <metadata
     id="metadata5">
    <rdf:RDF>
      <cc:Work
         rdf:about="">
        <dc:format>image/svg+xml</dc:format>
        <dc:type
           rdf:resource="http://purl.org/dc/dcmitype/StillImage" />
        <dc:title />
      </cc:Work>
    </rdf:RDF>
  </metadata>
  <g
     id="layer1"
     inkscape:groupmode="layer"
     inkscape:label="Warstwa 1">
    <path
       style="fill:#ffd5d5;stroke:#ffffff;stroke-width:7;stroke-linecap:butt;stroke-linejoin:miter;stroke-miterlimit:4;stroke-dasharray:none;stroke-opacity:1"
       d="m 56.304405,216.16459 c 0,0 -4.1759,7.73821 -7.40833,10.58334 -2.99087,2.63251 -6.60358,5.36393 -10.58333,5.55625 -2.5683,0.12411 -5.30928,-1.1087 -7.14376,-2.91042 -2.396,-2.35322 -3.43081,-5.94543 -3.96875,-9.26041 -0.85058,-5.24144 1.32292,-15.875 1.32292,-15.875 z"
       id="path863-1"
       sodipodi:nodetypes="caaaacc" />
    <path
       style="fill:#ff3dff;fill-opacity:1;stroke:#ffffff;stroke-width:7;stroke-linecap:butt;stroke-linejoin:miter;stroke-miterlimit:4;stroke-dasharray:none;stroke-opacity:1"
       d="m 53.620775,124.76993 c 0,0 -6.63916,-5.29166 -10.58333,-5.29166 -2.25382,0 -4.92173,0.47221 -6.04763,3.02381 -2.98521,6.7653 2.48619,17.46307 2.64584,15.875 z"
       id="path913-8"
       sodipodi:nodetypes="cascc" />
    <g
       transform="matrix(-1,0,0,1,218.2294,0)"
       id="g978"
       style="stroke:#ffffff">
      <path
         sodipodi:nodetypes="caasaaacc"
         id="path861-5"
         d="m 97.137591,240.24166 c 0,0 -6.215073,12.74604 -6.085405,19.57917 0.06033,3.17933 2.314896,5.93447 3.175004,8.99583 0.976619,3.47606 0.635213,7.45424 2.242084,10.59736 1.999598,3.91131 3.390559,4.76206 5.959976,5.80681 4.08495,1.66098 9.02983,1.34575 13.2292,0 3.61245,-1.15766 7.2524,-3.39629 9.26047,-6.61458 4.25979,-6.82704 3.96877,-23.8125 3.96877,-23.8125 z"
         style="fill:#ffd5d5;stroke:#ffffff;stroke-width:7;stroke-linecap:butt;stroke-linejoin:miter;stroke-miterlimit:4;stroke-dasharray:none;stroke-opacity:1" />
      <path
         sodipodi:nodetypes="caaaacc"
         id="path859-8"
         d="m 33.337499,229.65833 c 0,0 -6.564774,8.27319 -7.9375,13.22917 -0.823973,2.9748 -1.367547,6.49308 0,9.26042 0.836193,1.69211 2.68221,2.92417 4.497917,3.43958 4.263278,1.2102 8.989428,-0.0327 13.229167,-1.32291 4.114473,-1.25213 11.377084,-6.08542 11.377084,-6.08542 z"
         style="fill:#ffd5d5;stroke:#ffffff;stroke-width:7;stroke-linecap:butt;stroke-linejoin:miter;stroke-miterlimit:4;stroke-dasharray:none;stroke-opacity:1" />
      <g
         id="g970"
         style="stroke:#ffffff">
        <path
           style="fill:#ffd5d5;stroke:#ffffff;stroke-width:7;stroke-linecap:butt;stroke-linejoin:miter;stroke-miterlimit:4;stroke-dasharray:none;stroke-opacity:1"
           d="m 48.154165,18.950377 c 0,0 -2.63168,-7.166519 -5.820833,-7.937501 -1.150121,-0.278043 -2.422684,0.674206 -3.174998,1.587501 -2.095107,2.543419 -2.645834,9.525002 -2.645834,9.525002 z"
           id="path853-2"
           sodipodi:nodetypes="caacc" />
        <path
           style="fill:#ffd5d5;stroke:#ffffff;stroke-width:7;stroke-linecap:butt;stroke-linejoin:miter;stroke-miterlimit:4;stroke-dasharray:none;stroke-opacity:1"
           d="m 95.87913,29.533776 c 0,0 17.94816,-10.283969 25.39997,-5.820833 1.72535,1.03337 1.55793,3.809909 1.58749,5.820834 0.0774,5.261618 -1.22237,10.705646 -3.70416,15.345834 -2.94355,5.503548 -12.7,13.758334 -12.7,13.758334 z"
           id="path851-6"
           sodipodi:nodetypes="caaacc" />
        <g
           id="g1001"
           style="fill:#ffffff;stroke:#ffffff">
          <path
             sodipodi:nodetypes="acsscssssscaaasssaaaaassssssaaaaaasscsssaaasscaaaaaacscasscaaaaaasccssaaaaacssscssscaascaa"
             id="path944-5"
             d="m 33.572004,124.26509 c 0.540429,-0.72599 1.799048,-2.0336 1.799048,-2.0336 0,0 -2.788668,-0.62633 -5.642856,-2.35321 -2.365379,-1.43113 -4.775757,-4.31301 -5.681187,-6.19653 -0.76517,-1.59173 0.26458,-4.7625 0.26458,-4.7625 0,0 -1.92932,-2.4171 -2.72732,-5.14605 -0.55489,-1.89759 -0.0162,-3.945953 -0.18309,-5.437283 -0.19072,-1.70385 0.25508,-3.43275 0.29388,-5.15872 0.0491,-2.1846 -0.23524,-4.3645 0.23528,-6.48295 0.51593,-2.32284 1.45569,-6.53112 2.67375,-8.658567 1.028919,-1.797077 2.353338,-3.512262 2.353338,-3.512262 0,0 -1.845738,-4.104934 -2.910418,-6.085419 -1.46101,-2.717726 -3.89766,-4.975636 -4.7625,-7.9375 -0.89026,-3.048908 -0.61748,-6.368439 -0.26458,-9.525001 0.43492,-3.890246 1.2765,-7.819906 2.91041,-11.377084 0.97779,-2.128721 1.90283,-3.978493 3.380499,-5.818446 1.23867,-1.542353 3.022989,-3.077807 4.027838,-4.764885 0.60549,-1.016594 0.79798,-2.293667 1.587499,-3.175 3.362528,-3.75358 7.969776,-6.463971 12.699996,-8.202084 3.172851,-1.165862 6.708493,-0.840476 10.054165,-1.322916 4.506313,-0.649802 8.944503,-1.933994 13.493753,-2.116667 4.68383,-0.188077 9.52618,-0.265628 14.02292,1.058333 3.36931,0.992014 6.53984,2.805649 9.26042,5.027084 1.27999,1.045153 2.80904,2.370133 3.79654,3.710707 0.73325,0.995418 0.40134,1.470269 1.23054,2.374709 0.6743,0.735482 1.40448,0.84545 2.11667,1.587501 1.62103,1.689016 1.30198,4.182312 2.396741,6.269069 1.48909,2.838425 4.77347,5.374566 6.06993,8.283014 1.29466,2.904408 1.32504,6.409447 3.175,8.995834 1.24205,1.736482 3.77169,2.241889 5.02708,3.968751 1.49317,2.053928 1.6817,4.794573 2.64583,7.14375 1.139,2.775267 2.64958,5.393647 3.70417,8.202083 1.06907,2.847007 1.76213,5.821365 2.64583,8.73125 1.23228,4.057686 3.11042,7.971926 3.70417,12.170836 0.85213,6.0261 1.17659,12.343293 -0.26458,18.256253 -0.37534,1.53998 -0.80356,3.57625 -1.78338,5.41335 -1.3364,2.50567 -4.30204,5.69914 -4.30204,5.69914 0,0 4.49609,-2.67495 6.35,-2.91041 3.58179,-0.45492 7.18535,1.25471 10.79153,1.62976 4.79175,0.49836 9.58808,-0.14421 14.34397,0.48691 4.88737,0.64857 10.1004,0.52696 14.55208,2.64583 7.3419,3.49453 13.53196,9.45422 18.52083,15.875 5.13036,6.6029 8.64472,14.5003 11.11251,22.48959 2.23438,7.23364 3.64708,14.93346 3.17499,22.48959 -0.28224,4.51753 -0.55102,9.81201 -1.86716,14.1399 -0.54393,1.78864 -2.10159,4.9101 -2.10159,4.9101 0,0 1.25906,3.17644 0.52917,4.49791 -0.99181,1.79565 -3.61864,1.97226 -5.55625,2.64583 -5.98169,2.07944 -12.90003,1.31592 -18.52083,4.23334 -2.10626,1.09323 -3.01355,4.09795 -5.29167,4.7625 -2.57501,0.75116 -5.63702,0.0565 -7.9375,-1.32292 -1.24058,-0.74385 -2.04737,-2.12269 -2.64583,-3.43958 -0.93028,-2.04706 -1.32292,-6.61458 -1.32292,-6.61458 0,0 -1.12842,1.58958 -2.47949,2.49318 -1.06074,0.70942 -2.28301,1.47557 -2.28301,1.47557 0,0 -1.32492,7.92452 -1.85208,11.90625 -0.74526,5.62899 0.46891,12.13794 -1.8521,16.93333 -0.65284,1.34882 -1.40266,2.86273 -2.83988,4.14025 -1.55341,1.38081 -2.7164,1.94517 -2.7164,1.94517 0,0 0.0682,2.16648 -0.26459,3.17499 -0.68257,2.06854 -1.71193,4.22964 -3.4396,5.55626 -3.87268,2.97369 -9.1416,4.34743 -14.02293,4.23333 -7.66879,-0.17927 -14.03363,-8.03773 -21.69584,-7.67291 -6.897311,0.3284 -12.137611,10.59869 -18.785411,8.73124 -1.5307,-0.42999 -2.06658,-2.48808 -2.64584,-3.96875 -1.12616,-2.87867 -1.06878,-6.70151 -1.45735,-9.15811 -0.63849,-4.03665 -1.71765,-5.39397 -1.71765,-5.39397 h -1.32291 c 0,0 -0.59399,1.85102 -2.38148,3.28102 -1.13265,0.90611 -2.84873,0.79732 -3.70394,1.48148 -2.20486,1.76389 -3.14844,4.42912 -5.55625,5.29166 -3.41324,1.22272 -7.533432,0.67576 -10.847923,-0.79374 -4.790273,-2.1238 -6.945264,-8.05216 -11.377085,-10.84792 -5.028769,-3.17233 -13.186914,-1.53034 -16.668742,-6.35 -2.32638,-3.22025 -0.53546,-7.93359 -0.52917,-11.90625 0.003,-1.85418 0.26459,-5.55625 0.26459,-5.55625 0,0 -2.0027,-2.21519 -3.31562,-4.80997 -0.94508,-1.86779 -1.80692,-4.46143 -1.97605,-6.03795 -0.20487,-1.90974 -0.0367,-4.5543 0.7561,-6.81315 0.88534,-2.52247 1.88973,-4.56393 1.88973,-4.56393 0,0 -1.14785,-2.18548 -1.65838,-4.91851 -0.5189,-2.77784 -0.39689,-6.12134 0.0709,-8.31066 0.47929,-2.24321 2.00555,-6.11831 3.65088,-8.67462 2.412219,-3.74781 5.080367,-5.87746 5.080367,-5.87746 0,0 -1.358269,-1.82938 -1.587499,-2.91041 -0.899399,-4.2416 0.978049,-8.62943 1.058329,-12.96459 0.0736,-3.97199 -1.279009,-8.00499 -0.529159,-11.90626 0.712669,-3.70785 0.900359,-6.94981 2.909658,-10.2885 0.72851,-1.63729 1.647759,-2.92179 2.646589,-4.26358 z"
             style="fill:#ffffff;stroke:#ffffff;stroke-width:7;stroke-linecap:round;stroke-linejoin:round;stroke-miterlimit:4;stroke-dasharray:none;stroke-opacity:1" />
        </g>
      </g>
    </g>
    <path
       sodipodi:nodetypes="caaaacc"
       id="path863"
       d="m 56.304435,216.16448 c 0,0 -4.1759,7.73821 -7.40833,10.58334 -2.99087,2.63251 -6.60358,5.36393 -10.58333,5.55625 -2.5683,0.12411 -5.30928,-1.1087 -7.14376,-2.91042 -2.396,-2.35322 -3.4308,-5.94543 -3.96875,-9.26041 -0.85057,-5.24144 1.32292,-15.875 1.32292,-15.875 z"
       style="fill:#ffd5d5;stroke:#000000;stroke-width:3;stroke-linecap:butt;stroke-linejoin:miter;stroke-miterlimit:4;stroke-dasharray:none;stroke-opacity:1" />
    <path
       sodipodi:nodetypes="cascc"
       id="path913"
       d="m 53.658605,124.88323 c 0,0 -6.63916,-5.29166 -10.58333,-5.29166 -2.25382,0 -4.92173,0.47221 -6.04763,3.02381 -2.98521,6.7653 2.48619,17.46307 2.64584,15.875 z"
       style="fill:#ff0000;fill-opacity:1;stroke:#000000;stroke-width:3;stroke-linecap:butt;stroke-linejoin:miter;stroke-miterlimit:4;stroke-dasharray:none;stroke-opacity:1" />
    <path
       sodipodi:nodetypes="aaaaaaaaa"
       id="path911"
       d="m 51.541945,219.0749 c 3.00125,0.69424 6.69915,-0.0637 8.99583,-2.11667 1.95499,-1.74756 2.02815,-4.85991 2.64582,-7.40833 0.62875,-2.59414 2.81664,-5.9292 1.05834,-7.9375 -8.71438,-9.95342 -28.4341,-6.95499 -39.6875,0 -1.67756,1.03679 -3.26946,3.42078 -2.64583,5.29167 0.74835,2.24506 4.12757,2.36188 6.34999,3.175 5.62479,2.05794 12.1004,1.56478 17.46251,4.23334 2.24438,1.11696 3.37837,4.19751 5.82084,4.76249 z"
       style="fill:#0000ff;fill-opacity:1;stroke:none;stroke-width:0.264583px;stroke-linecap:butt;stroke-linejoin:miter;stroke-opacity:1" />
    <path
       sodipodi:nodetypes="aaaaaaaaaa"
       id="path909"
       d="m 64.241935,201.6124 c -4.24703,3.27755 -10.52862,2.20335 -15.875,2.64583 -7.91045,0.65469 -17.37326,4.64115 -23.8125,1e-5 -4.52503,-3.26146 -4.82062,-10.31702 -5.29167,-15.875 -0.97963,-11.55873 0.57017,-23.80002 5.29167,-34.39584 5.10191,-11.44951 12.96653,-22.82039 23.8125,-29.10416 9.28376,-5.37867 21.05724,-4.40671 31.75,-5.29167 5.27364,-0.43646 11.37364,-2.782 15.875,0 1.67756,1.03679 2.60419,3.32002 2.64583,5.29167 0.59175,28.02238 -12.20647,59.60501 -34.39583,76.72916 z"
       style="fill:#00ee00;fill-opacity:1;stroke:none;stroke-width:0.264583px;stroke-linecap:butt;stroke-linejoin:miter;stroke-opacity:1" />
    <path
       sodipodi:nodetypes="caaacc"
       id="path851"
       d="m 122.45024,29.633323 c 0,0 -17.94817,-10.283969 -25.399975,-5.820833 -1.72535,1.03337 -1.55793,3.809909 -1.58749,5.820834 -0.0774,5.261617 1.22237,10.705645 3.70416,15.345833 2.943545,5.503549 12.699995,13.758333 12.699995,13.758333 z"
       style="fill:#ffd5d5;stroke:#000000;stroke-width:3;stroke-linecap:butt;stroke-linejoin:miter;stroke-miterlimit:4;stroke-dasharray:none;stroke-opacity:1" />
    <path
       sodipodi:nodetypes="caacc"
       id="path853"
       d="m 170.07524,19.04999 c 0,0 2.63168,-7.166519 5.82084,-7.9375 1.15012,-0.278043 2.42268,0.674205 3.17499,1.5875 2.09511,2.543419 2.64584,9.525001 2.64584,9.525001 z"
       style="fill:#ffd5d5;stroke:#000000;stroke-width:3;stroke-linecap:butt;stroke-linejoin:miter;stroke-miterlimit:4;stroke-dasharray:none;stroke-opacity:1" />
    <path
       sodipodi:nodetypes="caaaacc"
       id="path859"
       d="m 184.62732,229.39365 c 0,0 6.56478,8.27319 7.9375,13.22917 0.82398,2.9748 1.36755,6.49308 0,9.26042 -0.83619,1.69211 -2.68221,2.92417 -4.49791,3.43958 -4.26328,1.2102 -8.98943,-0.0327 -13.22917,-1.32292 -4.11447,-1.25212 -11.37708,-6.08541 -11.37708,-6.08541 z"
       style="fill:#ffd5d5;stroke:#000000;stroke-width:3;stroke-linecap:butt;stroke-linejoin:miter;stroke-miterlimit:4;stroke-dasharray:none;stroke-opacity:1" />
    <path
       sodipodi:nodetypes="aaaaaaaaa"
       id="path903"
       d="m 191.24191,212.19573 c 3.23767,1.65546 2.20153,6.97423 2.64583,10.58334 0.43104,3.50135 1.94201,7.6382 0,10.58333 -3.69748,5.60737 -12.95896,4.17193 -18.52083,7.9375 -4.13126,2.797 -5.97407,8.67412 -10.58334,10.58334 -3.25924,1.35002 -7.47298,1.66461 -10.58333,0 -2.80363,-1.50046 -5.6802,-4.78143 -5.29167,-7.9375 1.60195,-13.01281 17.98993,-19.50326 29.10417,-26.45834 4.02608,-2.51945 9.00047,-7.45385 13.22917,-5.29167 z"
       style="fill:#00e900;fill-opacity:1;stroke:none;stroke-width:0.264583px;stroke-linecap:butt;stroke-linejoin:miter;stroke-opacity:1" />
    <path
       sodipodi:nodetypes="caasaaacc"
       id="path861"
       d="m 121.12734,239.97698 c 0,0 6.21507,12.74604 6.0854,19.57917 -0.0603,3.17933 -2.31489,5.93447 -3.175,8.99583 -0.97662,3.47606 -0.63522,7.45424 -2.24209,10.59736 -1.99959,3.91131 -3.39056,4.76206 -5.95997,5.80681 -4.08495,1.66098 -9.02981,1.34575 -13.22917,0 -3.612415,-1.15766 -7.252335,-3.39629 -9.260405,-6.61458 -4.25977,-6.82704 -3.96875,-23.8125 -3.96875,-23.8125 z"
       style="fill:#ffd5d5;stroke:#000000;stroke-width:3;stroke-linecap:butt;stroke-linejoin:miter;stroke-miterlimit:4;stroke-dasharray:none;stroke-opacity:1" />
    <path
       sodipodi:nodetypes="aaaaaaaaa"
       id="path899"
       d="m 193.88774,193.6749 c 1.97796,0.26488 3.53831,2.36266 4.23333,4.23333 1.66321,4.47656 1.16806,10.06269 -1.05833,14.2875 -2.63276,4.99595 -8.68101,7.23592 -13.22917,10.58334 -6.34359,4.66885 -13.1914,8.62093 -19.57916,13.22916 -4.69238,3.38516 -7.98196,10.25003 -13.75834,10.58334 -3.08042,0.17775 -7.10931,-1.79018 -7.9375,-4.7625 -2.73203,-9.80522 7.20704,-19.67495 14.2875,-26.9875 9.89229,-10.21653 22.94657,-23.05426 37.04167,-21.16667 z"
       style="fill:#ff0000;fill-opacity:1;stroke:none;stroke-width:0.265;stroke-linecap:butt;stroke-linejoin:miter;stroke-miterlimit:4;stroke-dasharray:none;stroke-opacity:1" />
    <path
       sodipodi:nodetypes="aasssaaa"
       id="path907"
       d="m 101.81277,123.29573 c -2.205915,-3.71926 -8.480945,-3.59372 -12.700005,-2.64583 -8.84595,1.98741 -18.06706,9.46249 -21.69583,16.40418 -3.92403,7.50651 -15.04815,22.83761 -17.59655,30.95732 -1.61405,5.14269 2.31959,13.53937 1.19238,18.78434 -1.30192,6.05793 3.06678,9.91995 6.35,13.75833 4.54734,5.31625 10.87666,14.00124 17.4625,11.64167 29.153995,-10.44528 42.785545,-62.26392 26.987505,-88.90001 z"
       style="fill:#ff0000;fill-opacity:1;stroke:none;stroke-width:0.264583px;stroke-linecap:butt;stroke-linejoin:miter;stroke-opacity:1" />
    <path
       sodipodi:nodetypes="aaaaaaaaaaaaaa"
       id="path893"
       d="m 151.55441,228.07073 c 10.839,4.82728 16.84278,-16.86068 26.45833,-23.8125 5.76224,-4.16596 15.26268,-4.26327 18.52083,-10.58333 3.24912,-6.30253 1.32868,-14.96922 -2.11666,-21.16666 -2.81137,-5.05706 -8.35815,-8.50593 -13.75834,-10.58334 -31.37657,-12.07029 -70.51877,-23.06391 -100.541635,-7.9375 -7.43044,3.74367 -11.92981,12.94851 -13.22917,21.16667 -0.56788,3.59173 3.26646,7.00033 2.64584,10.58333 -0.54272,3.13324 -5.09408,4.76375 -5.29167,7.9375 -0.24508,3.93656 1.86477,8.63068 5.29167,10.58334 10.75522,6.12837 24.95568,-5.3218 37.041655,-2.64584 8.86547,1.96291 14.73446,13.03191 23.81248,13.22917 7.88649,0.17137 14.45644,-14.73048 21.16667,-10.58333 6.75204,4.17299 -7.25091,20.58321 0,23.81249 z"
       style="fill:#0046ff;fill-opacity:1;stroke:none;stroke-width:0.264583px;stroke-linecap:butt;stroke-linejoin:miter;stroke-opacity:1" />
    <path
       sodipodi:nodetypes="aaaaaaaaaaaaaa"
       id="path891"
       d="m 188.59607,167.21657 c 4.40317,-2.95607 0.88185,-10.57452 1.05834,-15.875 0.17022,-5.11244 1.34027,-10.40926 0,-15.34583 -1.55358,-5.72225 -3.90546,-12.30514 -8.99584,-15.34584 -8.33412,-4.97834 -19.46043,-2.17181 -29.10416,-1.05833 -9.98935,1.15338 -19.05921,8.40251 -29.10417,7.9375 -7.52725,-0.34846 -14.01465,-10.31033 -21.16664,-7.9375 -13.931745,4.62215 -29.759645,23.62194 -23.812495,37.04167 2.17355,4.90461 11.10492,0.19106 15.875,2.64583 4.43608,2.28289 5.89871,8.86731 10.583325,10.58333 9.97204,3.65284 21.15433,-3.36493 31.74998,-2.64583 8.11246,0.55058 15.70131,5.8608 23.8125,5.29167 7.51685,-0.52742 13.63262,-7.79803 21.16666,-7.9375 2.78848,-0.0516 5.62197,4.20036 7.9375,2.64583 z"
       style="fill:#0cff1b;fill-opacity:1;stroke:none;stroke-width:0.264583px;stroke-linecap:butt;stroke-linejoin:miter;stroke-opacity:1" />
    <path
       sodipodi:nodetypes="aaaaaaaaa"
       id="path889"
       d="m 170.07524,109.00824 c 7.89011,-0.86611 18.19984,-5.61266 23.8125,0 1.24726,1.24726 0.78883,3.71399 0,5.29166 -1.97209,3.94418 -6.32919,6.7765 -10.58333,7.9375 -7.70458,2.10266 -15.83962,-3.10934 -23.8125,-2.64583 -11.74677,0.68291 -22.63313,8.24046 -34.39584,7.9375 -6.4185,-0.16532 -18.78047,1.12373 -18.52081,-5.29167 0.5456,-13.48012 26.4872,-5.15111 39.68748,-7.9375 7.95581,-1.67936 15.72993,-4.40442 23.8125,-5.29166 z"
       style="fill:#ff3c3c;fill-opacity:1;stroke:none;stroke-width:0.264583px;stroke-linecap:butt;stroke-linejoin:miter;stroke-opacity:1" />
    <path
       sodipodi:nodetypes="aaaaaaaaaaaa"
       id="path887"
       d="m 154.20024,69.320823 c 12.32425,1.917829 27.6417,-2.906244 37.04167,5.291666 4.83893,4.220133 4.92861,12.110449 5.29166,18.52079 0.30335,5.35605 1.44751,12.407381 -2.64583,15.874961 -6.05647,5.1306 -15.95913,-1.15263 -23.8125,0 -9.11017,1.33709 -17.63889,5.29167 -26.45833,7.9375 -8.81945,2.64583 -17.25305,7.72354 -26.45831,7.9375 -7.27074,0.169 -16.02409,-0.14909 -21.166665,-5.29167 -5.14258,-5.14258 -5.29167,-13.89397 -5.29167,-21.166661 0,-7.272658 2.81278,-14.32939 5.29167,-21.166585 2.0705,-5.710787 2.54002,-13.61719 7.937495,-16.404167 15.09894,-7.796296 33.47995,5.853769 50.27081,8.466666 z"
       style="fill:#2a58ff;fill-opacity:1;stroke:none;stroke-width:0.264583px;stroke-linecap:butt;stroke-linejoin:miter;stroke-opacity:1" />
    <path
       sodipodi:nodetypes="aaaaaaaaaa"
       id="path881"
       d="m 188.59607,32.279156 c 3.23002,-4.632262 -5.74847,-10.311114 -10.58333,-13.229166 -3.99835,-2.413182 -9.15234,-1.874409 -13.75833,-2.645833 -4.9205,-0.824099 -9.82784,-2.161607 -14.81667,-2.116666 -5.5385,0.04989 -11.6724,-0.233023 -16.40417,2.645833 -5.06328,3.080551 -14.03408,9.468914 -10.58333,14.2875 2.69575,3.764283 8.62468,-3.747998 13.22917,-4.233334 8.8146,-0.929102 17.6059,2.204314 26.45833,2.645834 6.16595,0.307531 12.42694,-0.988903 18.52083,0 2.75295,0.446741 6.34231,4.933544 7.9375,2.645832 z"
       style="fill:#ff3c3c;fill-opacity:1;stroke:none;stroke-width:0.264583px;stroke-linecap:butt;stroke-linejoin:miter;stroke-opacity:1" />
    <path
       sodipodi:nodetypes="aaaaaaaaaaaaaaaaaaa"
       id="path885"
       d="m 164.78357,66.674989 c 8.54018,-1.58572 15.47014,13.002865 23.8125,10.583334 3.05404,-0.885762 3.6956,-5.187175 5.29167,-7.937499 1.97969,-3.411357 4.65988,-6.690088 5.29167,-10.583334 0.99894,-6.155762 -0.25931,-12.759253 -2.64584,-18.520833 -1.68752,-4.074052 -4.20684,-8.232193 -7.9375,-10.583333 -3.80453,-2.397702 -8.754,-2.202705 -13.22916,-2.645834 -6.14357,-0.608333 -12.36276,0.437641 -18.52084,0 -6.2206,-0.442084 -12.28467,-2.686679 -18.52083,-2.645833 -5.71281,0.03742 -12.32074,-0.724862 -16.93332,2.645833 -2.22915,1.628976 -2.30136,5.030342 -3.70416,7.408334 -1.74013,2.949836 -4.29418,5.400894 -5.82083,8.466666 -1.24319,2.496544 -1.17959,5.565075 -2.64583,7.9375 -1.31144,2.121962 -3.98023,3.169705 -5.29167,5.291667 -1.46624,2.372425 -3.01602,5.173224 -2.64583,7.9375 0.42208,3.151758 2.48803,6.437041 5.29166,7.9375 8.55347,4.57768 19.40276,0 29.10415,0 7.9375,0 16.4792,3.03755 23.8125,0 2.30463,-0.95461 2.83907,-4.836276 5.29166,-5.291668 z"
       style="fill:#1dff48;fill-opacity:1;stroke:none;stroke-width:0.264583px;stroke-linecap:butt;stroke-linejoin:miter;stroke-opacity:1" />
    <path
       sodipodi:nodetypes="aaasssaaaaa"
       id="path901"
       d="m 95.991935,238.65407 c -6.17361,2.64583 -12.4723,10.85798 -18.52083,7.9375 -9.0554,-4.37232 -6.60277,-19.13743 -7.9375,-29.10417 -0.70238,-5.24485 -4.05886,-12.4798 0,-15.875 7.87489,-6.58729 30.06077,-5.58381 40.676435,-0.97335 11.06418,4.80526 10.60998,13.34609 21.23603,12.08586 7.84324,-0.93019 15.24118,-14.07682 21.69584,-9.525 6.06974,4.28038 0.3755,15.06189 -1.5875,22.22499 -1.56367,5.70588 -2.4415,13.68499 -7.9375,15.875 -9.58961,3.8212 -18.78534,-10.87296 -29.10415,-10.58333 -6.71404,0.18845 -12.34722,5.29167 -18.520825,7.9375 z"
       style="fill:#ff3c3c;fill-opacity:1;stroke:none;stroke-width:0.264583px;stroke-linecap:butt;stroke-linejoin:miter;stroke-opacity:1" />
    <path
       sodipodi:nodetypes="saaaaaasss"
       id="path905"
       d="m 141.50024,234.42073 c 1.72279,2.0081 -0.61571,8.89543 -1.5875,13.22917 -0.97638,4.3542 -0.14108,10.92073 -4.23333,12.70001 -6.22516,2.70663 -11.74244,-8.10359 -18.52081,-8.46668 -8.35488,-0.44753 -15.44925,8.18328 -23.812495,7.93751 -4.74737,-0.13951 -9.97092,-1.83613 -13.22917,-5.29167 -1.91331,-2.02916 -3.55095,-5.2995 -2.64583,-7.9375 3.50877,-10.22644 16.10238,-16.08561 26.987485,-17.99167 6.49527,-1.13736 16.3965,3.17501 23.29312,4.15878 5.23576,0.74686 10.48892,-2.13739 13.74853,1.66205 z"
       style="fill:#00ff00;fill-opacity:1;stroke:none;stroke-width:0.264583px;stroke-linecap:butt;stroke-linejoin:miter;stroke-opacity:1" />
    <g
       transform="matrix(-1,0,0,1,222.99191,-15.345837)"
       id="g942">
      <g
         id="g930">
        <g
           id="g923">
          <path
             style="fill:#ffffff;stroke:#000000;stroke-width:1;stroke-linecap:butt;stroke-linejoin:miter;stroke-miterlimit:4;stroke-dasharray:none;stroke-opacity:1"
             d="m 63.499999,107.95 c 0,0 13.952761,8.6108 21.166667,6.87917 5.33635,-1.28094 10.762598,-6.2246 11.641667,-11.64167 0.94768,-5.839869 -2.668684,-13.183951 -7.9375,-15.875 -10.665648,-5.447481 -35.454166,5.820833 -35.454166,5.820833 0,0 -13.693067,-8.617157 -19.579167,-5.291666 -2.236066,1.263318 -2.665008,4.899292 -2.116666,7.408333 2.012283,8.44385 8.350544,5.63836 8.781908,5.73467 8.458856,2.24912 23.497257,6.96533 23.497257,6.96533 z"
             id="path857"
             sodipodi:nodetypes="caaacaccc" />
          <ellipse
             style="fill:#000000;fill-opacity:1;stroke:#000000;stroke-width:0.264999;stroke-linecap:round;stroke-linejoin:round;stroke-miterlimit:4;stroke-dasharray:none;stroke-opacity:1"
             id="path879"
             cx="36.115627"
             cy="92.207291"
             rx="3.3072915"
             ry="4.6302085" />
          <circle
             style="fill:#000000;fill-opacity:1;stroke:#000000;stroke-width:0.265;stroke-linecap:round;stroke-linejoin:round;stroke-miterlimit:4;stroke-dasharray:none;stroke-opacity:1"
             id="path877"
             cx="77.390625"
             cy="99.880211"
             r="5.953125" />
        </g>
        <path
           sodipodi:nodetypes="aaaaaaa"
           id="path849"
           d="m 48.154166,118.00417 c 8.017985,2.11465 17.403665,-5.07597 21.695833,-12.17084 3.196876,-5.28437 3.798336,-13.280876 0.529168,-18.52083 -3.384463,-5.424753 -11.094909,-7.357572 -17.4625,-7.9375 -4.345635,-0.395779 -9.342941,0.387288 -12.7,3.175 -3.582611,2.975011 -6.086291,8.050772 -5.820834,12.7 0.505252,8.84902 5.18796,20.49383 13.758333,22.75417 z"
           style="fill:#ffffff;stroke:#000000;stroke-width:1;stroke-linecap:butt;stroke-linejoin:miter;stroke-miterlimit:4;stroke-dasharray:none;stroke-opacity:1" />
      </g>
      <g
         id="g918">
        <path
           sodipodi:nodetypes="ccac"
           id="path867"
           d="m 38.364583,88.635416 c -1.163949,1.863878 0.890474,4.264153 2.645833,6.614583 0,0 1.122159,-1.958856 1.984376,-2.645832 1.698369,-1.353186 5.953125,-2.645834 5.953125,-2.645834"
           style="fill:none;stroke:#000000;stroke-width:2;stroke-linecap:round;stroke-linejoin:round;stroke-miterlimit:4;stroke-dasharray:none;stroke-opacity:1" />
        <path
           sodipodi:nodetypes="ccac"
           id="path869"
           d="m 41.010416,95.249999 v 3.96875 c 0,0 3.537434,5.524341 6.425596,5.953131 2.494274,0.37031 6.803571,-3.3073 6.803571,-3.3073"
           style="fill:none;stroke:#000000;stroke-width:2;stroke-linecap:round;stroke-linejoin:round;stroke-miterlimit:4;stroke-dasharray:none;stroke-opacity:1" />
        <path
           sodipodi:nodetypes="cac"
           id="path875"
           d="m 36.512499,102.39375 c 0,0 0.205002,1.52921 0.793751,1.5875 2.001356,0.19818 3.704167,-4.7625 3.704167,-4.7625"
           style="fill:none;stroke:#000000;stroke-width:2;stroke-linecap:round;stroke-linejoin:round;stroke-miterlimit:4;stroke-dasharray:none;stroke-opacity:1" />
      </g>
    </g>
    <path
       sodipodi:nodetypes="acsscssssscaaasssaaaaassssssaaaaaasscsssaaasscaaaaaacscasscaaaaaasccssaaaaacssscssscaascaa"
       id="path944"
       d="m 184.62732,124.35417 c -0.54042,-0.72599 -1.79905,-2.0336 -1.79905,-2.0336 0,0 2.78867,-0.62633 5.64286,-2.35321 2.36538,-1.43113 4.77576,-4.31301 5.68119,-6.19653 0.76517,-1.59173 -0.26458,-4.7625 -0.26458,-4.7625 0,0 1.92932,-2.4171 2.72732,-5.14605 0.55489,-1.89759 0.0162,-3.945952 0.18309,-5.43728 0.19073,-1.703848 -0.25508,-3.432749 -0.29388,-5.158716 -0.0491,-2.184602 0.23525,-4.364503 -0.23528,-6.482951 -0.51593,-2.322841 -1.45568,-6.531118 -2.67375,-8.658569 -1.02892,-1.797079 -2.35334,-3.512264 -2.35334,-3.512264 0,0 1.84574,-4.104932 2.91042,-6.085417 1.46101,-2.717726 3.89766,-4.975637 4.7625,-7.9375 0.89026,-3.048908 0.61748,-6.368441 0.26458,-9.525 -0.43492,-3.890246 -1.2765,-7.819907 -2.91041,-11.377083 -0.97779,-2.128722 -1.90283,-3.978494 -3.3805,-5.818447 -1.23867,-1.542354 -3.02299,-3.077808 -4.02784,-4.764886 -0.60549,-1.016594 -0.79798,-2.293667 -1.5875,-3.175 -3.36253,-3.75358 -7.96978,-6.463971 -12.7,-8.202084 -3.17285,-1.165862 -6.70849,-0.840476 -10.05416,-1.322916 -4.50631,-0.649802 -8.9445,-1.933994 -13.49375,-2.116667 -4.68383,-0.188077 -9.52617,-0.265628 -14.02292,1.058333 -3.36931,0.992014 -6.53984,2.805649 -9.26042,5.027084 -1.27999,1.045153 -2.80904,2.370133 -3.79653,3.710707 -0.73325,0.995418 -0.40134,1.470269 -1.23055,2.374709 -0.6743,0.735482 -1.40448,0.84545 -2.11666,1.587501 -1.62103,1.689016 -1.30199,4.182312 -2.39675,6.26907 -1.48909,2.838425 -4.77347,5.374566 -6.06993,8.283013 -1.29466,2.904409 -1.32504,6.409447 -3.175,8.995833 -1.24205,1.736482 -3.77169,2.241891 -5.02708,3.96875 -1.49317,2.053929 -1.6817,4.794574 -2.64583,7.14375 -1.139,2.775269 -2.649575,5.39365 -3.704165,8.202084 -1.06907,2.847006 -1.76213,5.821365 -2.64583,8.731249 -1.23228,4.057689 -3.11042,7.971929 -3.70417,12.170834 -0.85213,6.026107 -1.17659,12.343293 0.26458,18.256253 0.37534,1.53998 0.80356,3.57625 1.78338,5.41335 1.3364,2.50567 4.30204,5.69914 4.30204,5.69914 0,0 -4.49609,-2.67495 -6.35,-2.91041 -3.58179,-0.45492 -7.18535,1.25471 -10.79151,1.62976 -4.79173,0.49836 -9.58803,-0.14421 -14.34391,0.48691 -4.88737,0.64857 -10.1004,0.52696 -14.55208,2.64583 -7.3419,3.49453 -13.53196,9.45422 -18.52083,15.875 -5.13036,6.60289 -8.64472,14.50029 -11.11251,22.48958 -2.23438,7.23364 -3.64708,14.93346 -3.17499,22.48959 0.28224,4.51753 0.55102,9.81201 1.86716,14.1399 0.54393,1.78864 2.10159,4.9101 2.10159,4.9101 0,0 -1.25906,3.17644 -0.52917,4.49791 0.99181,1.79565 3.61864,1.97226 5.55625,2.64583 5.98169,2.07944 12.90003,1.31592 18.52083,4.23334 2.10626,1.09323 3.01355,4.09795 5.29167,4.7625 2.57501,0.75116 5.63702,0.0565 7.9375,-1.32292 1.24058,-0.74385 2.04737,-2.12269 2.64583,-3.43958 0.93028,-2.04706 1.32292,-6.61458 1.32292,-6.61458 0,0 1.12842,1.58958 2.47949,2.49318 1.06074,0.70942 2.28301,1.47557 2.28301,1.47557 0,0 1.32492,7.92452 1.85208,11.90625 0.74525,5.62899 -0.46891,12.13794 1.85209,16.93333 0.65283,1.34882 1.40265,2.86273 2.83986,4.14025 1.5534,1.38081 2.71638,1.94517 2.71638,1.94517 0,0 -0.0682,2.16648 0.26459,3.17499 0.68257,2.06854 1.71192,4.22964 3.43958,5.55626 3.87267,2.97369 9.14159,4.34743 14.02292,4.23333 7.668785,-0.17927 14.033625,-8.03773 21.695835,-7.67291 6.89731,0.3284 12.13761,10.59869 18.78541,8.73124 1.5307,-0.42999 2.06658,-2.48808 2.64584,-3.96875 1.12616,-2.87867 1.06878,-6.70151 1.45735,-9.15811 0.6385,-4.03665 1.71765,-5.39397 1.71765,-5.39397 h 1.32291 c 0,0 0.59399,1.85102 2.38148,3.28102 1.13265,0.90611 2.84873,0.79732 3.70394,1.48148 2.20486,1.76389 3.14845,4.42912 5.55625,5.29166 3.41324,1.22272 7.53343,0.67576 10.84792,-0.79374 4.79027,-2.1238 6.94526,-8.05216 11.37708,-10.84792 5.02877,-3.17233 13.18693,-1.53034 16.66875,-6.35 2.32638,-3.22025 0.53546,-7.93359 0.52917,-11.90625 -0.003,-1.85418 -0.26459,-5.55625 -0.26459,-5.55625 0,0 2.00271,-2.21519 3.31562,-4.80997 0.94508,-1.86779 1.80693,-4.46143 1.97605,-6.03795 0.20487,-1.90974 0.0367,-4.5543 -0.7561,-6.81315 -0.88534,-2.52247 -1.88973,-4.56393 -1.88973,-4.56393 0,0 1.14785,-2.18548 1.65838,-4.91851 0.5189,-2.77784 0.39689,-6.12134 -0.0709,-8.31066 -0.47928,-2.24321 -2.00555,-6.11831 -3.65088,-8.67462 -2.41222,-3.74781 -5.08037,-5.87746 -5.08037,-5.87746 0,0 1.35828,-1.82938 1.5875,-2.91041 0.8994,-4.2416 -0.97804,-8.62943 -1.05833,-12.96459 -0.0736,-3.97199 1.27901,-8.00499 0.52916,-11.90625 -0.71266,-3.70785 -0.90036,-6.94981 -2.90965,-10.2885 -0.72852,-1.63729 -1.64777,-2.92179 -2.6466,-4.26358 z"
       style="fill:none;stroke:#000000;stroke-width:3;stroke-linecap:round;stroke-linejoin:round;stroke-miterlimit:4;stroke-dasharray:none;stroke-opacity:1" />
  </g>
</svg>
